<?xml version="1.0" encoding="utf-8"?>
<!-- Generator: Adobe Illustrator 21.1.0, SVG Export Plug-In . SVG Version: 6.00 Build 0)  -->
<svg version="1.1" id="Layer_2" xmlns="http://www.w3.org/2000/svg" xmlns:xlink="http://www.w3.org/1999/xlink" x="0px" y="0px"
	 viewBox="0 0 192 192" style="enable-background:new 0 0 192 192;" xml:space="preserve">
<g>
	<path d="M127.2,71.4c1-1.3,1.7-2.9,1.7-4.6V55.1c0-3.8-2.9-6.8-6.5-7.3v-1.1c0-7.5-7.6-11.4-12.6-14c-1.3-0.7-3.1-1.6-3.7-2.1
		c-0.1-1-0.1-1.8-0.1-2.5c0-1,0.3-1.8,0.7-2.8c0.6-1.5,1.4-3.4,1.4-6.4c0-6-4.8-10.8-10.8-10.8c-6.2,0-10.8,5.7-10.8,10.8
		c0,2.6,0.7,4.4,1.2,5.9c0.4,1.1,0.7,2,0.7,3c0,0.8-0.1,1.8-0.2,2.8c-0.5,0.5-2.4,1.6-3.8,2.3c-4.9,2.6-12.2,6.6-12.2,13.8v1.1
		c-3.7,0.4-6.5,3.5-6.5,7.3v11.7c0,1.8,0.7,3.4,1.7,4.6c-4.1,2.1-7,6.3-7,11.3v88.8c0,6.9,5.6,12.6,12.6,12.6h48.6
		c6.9,0,12.6-5.6,12.6-12.6V82.7C134.2,77.7,131.4,73.5,127.2,71.4z M86.4,36.5c3.4-1.8,5.6-3,5.9-5.1c0.2-1.3,0.2-2.5,0.2-3.6
		c0-1.7-0.5-3.1-1-4.4c-0.5-1.4-1-2.6-1-4.5c0-3.1,3-6.7,6.7-6.7c3.7,0,6.7,3,6.7,6.7c0,2.3-0.5,3.6-1.1,4.9c-0.5,1.3-1,2.6-1,4.4
		c0,0.9,0.1,1.9,0.2,3.2c0.2,2.1,2.4,3.3,5.8,5c4.4,2.3,10.4,5.4,10.4,10.4v1H76.3v-1C76.3,41.9,82.1,38.8,86.4,36.5z M73,74.1
		L73,74.1h48.6h0c4.7,0,8.5,3.8,8.5,8.5v14.1c-3.1-1.9-8.7-4.1-17.5-4.1c-5.7,0-10.2,1.4-14.9,2.8c-4.9,1.5-10,3.1-16.8,3.1
		c-10.2,0-15.1-3.5-16.5-4.7V82.7C64.5,78,68.3,74.1,73,74.1z M121.6,180H73c-4.7,0-8.5-3.8-8.5-8.5V98.7c3.1,1.8,8.4,3.8,16.5,3.8
		c7.5,0,12.8-1.7,18-3.2c4.4-1.4,8.6-2.6,13.7-2.6c11.5,0,16.6,4.3,17.5,5.1v69.7C130.2,176.1,126.3,180,121.6,180z"/>
	<path d="M71.7,93.7h15c1.1,0,2-0.9,2-2c0-1.1-0.9-2-2-2h-15c-1.1,0-2,0.9-2,2C69.7,92.8,70.6,93.7,71.7,93.7z"/>
	<path d="M71.8,110h15c1.1,0,2-0.9,2-2s-0.9-2-2-2h-15c-1.1,0-2,0.9-2,2S70.6,110,71.8,110z"/>
	<path d="M71.7,126.2h15c1.1,0,2-0.9,2-2c0-1.1-0.9-2-2-2h-15c-1.1,0-2,0.9-2,2C69.7,125.3,70.6,126.2,71.7,126.2z"/>
	<path d="M86.8,138.5h-15c-1.1,0-2,0.9-2,2c0,1.1,0.9,2,2,2h15c1.1,0,2-0.9,2-2C88.8,139.4,87.9,138.5,86.8,138.5z"/>
	<path d="M86.8,154.8h-15c-1.1,0-2,0.9-2,2c0,1.1,0.9,2,2,2h15c1.1,0,2-0.9,2-2C88.8,155.7,87.9,154.8,86.8,154.8z"/>
</g>
</svg>
