<?xml version="1.0" encoding="utf-8"?>
<!-- Generator: Adobe Illustrator 21.1.0, SVG Export Plug-In . SVG Version: 6.00 Build 0)  -->
<svg version="1.1" id="Layer_2" xmlns="http://www.w3.org/2000/svg" xmlns:xlink="http://www.w3.org/1999/xlink" x="0px" y="0px"
	 viewBox="0 0 192 192" style="enable-background:new 0 0 192 192;" xml:space="preserve">
<g>
	<path d="M24.1,115v14.2c0,1.7,0.3,3.5,0.8,5.1l0,0l0,0l0,0l0,0c1.7,5.3,6.1,9.4,11.5,10.9v2.5c0,10,6.2,19,15.7,22.6l0,0h0l0,0l0,0
		C55,171.4,58,172,61,172H131c3.1,0,6.1-0.6,8.9-1.7l0,0l0,0l0,0l0,0c9.4-3.6,15.7-12.6,15.7-22.6v-2.5c5.4-1.5,9.8-5.6,11.5-10.9
		l0,0l0,0l0,0l0,0c0.5-1.6,0.8-3.4,0.8-5.1V115c2.5-1,4.1-3.4,4.1-6V94.6c0-7.5-6.2-13.6-13.8-13.6h-2.6V48.8
		c0-9-7.3-16.5-16.4-16.7v-0.5c0-6.4-5.3-11.6-11.8-11.6H62.6c-6.5,0-11.8,5.2-11.8,11.6v0.6c-8.3,1.2-14.4,8.3-14.4,16.5V81h-2.6
		C26.2,81,20,87.1,20,94.6V109C20,111.6,21.6,114,24.1,115z M28.8,133.1L28.8,133.1L28.8,133.1c-0.4-1.3-0.6-2.6-0.6-3.9v-13.8h8.2
		V141C32.8,139.6,30,136.7,28.8,133.1z M52.8,103L52.8,103l0.5,0l0,0h7.7v11.2c0,3.9,3.2,7.1,7.2,7.1c4,0,7.2-3.2,7.2-7.1l0,0v-11.2
		h39v11.2c0,3.9,3.2,7.1,7.2,7.1s7.2-3.2,7.2-7.1l0,0v-11.2h9.8l0.6,0l0,0c4.7-0.2,9.2-2.3,12.3-5.8v39.1
		c-12.5,6.3-21.3,18-23.9,31.6H64.4c-2.5-13.6-11.4-25.3-23.9-31.6V97.2C43.6,100.8,48.1,102.9,52.8,103z M118.6,103.1V90.9h6.2
		v23.3c0,1.7-1.4,3-3.1,3c-1.7,0-3.1-1.4-3.1-3V103.1z M124.8,86.8h-11.3c-0.6,0-1-0.5-1-1c0-0.6,0.5-1,1-1h16.4c0.6,0,1,0.5,1,1
		c0,0.6-0.5,1-1,1H124.8z M124.8,80.8h-6.2V64.4h4c0.7,0,1.4-0.1,2.1-0.2V80.8z M114.5,80.8h-1c-2.8,0-5.1,2.3-5.1,5.1
		s2.3,5.1,5.1,5.1h1V99h-39v-8.1h1c2.8,0,5.1-2.3,5.1-5.1s-2.3-5.1-5.1-5.1h-1V64.4h39V80.8z M71.4,80.8h-6.2V64.3
		c0.7,0.1,1.4,0.2,2.1,0.2h4V80.8z M65.2,84.8h11.3c0.6,0,1,0.5,1,1c0,0.6-0.5,1-1,1H60.1c-0.6,0-1-0.5-1-1c0-0.6,0.5-1,1-1H65.2z
		 M65.2,90.9h6.2v23.3c0,1.7-1.4,3-3.1,3c-1.7,0-3.1-1.4-3.1-3V90.9z M138.4,166.5L138.4,166.5c-2.1,0.8-4.4,1.3-6.6,1.3
		c2.4-11.4,9.5-21.2,19.7-27v6.8C151.5,156,146.3,163.5,138.4,166.5L138.4,166.5z M53.6,166.6c-7.9-3-13.1-10.5-13.1-18.9v-6.8
		c10.2,5.8,17.3,15.6,19.7,27C58,167.8,55.7,167.4,53.6,166.6L53.6,166.6z M163.8,129.2c0,1.3-0.2,2.6-0.6,3.8l0,0l0,0
		c-1.2,3.6-4,6.5-7.6,7.9v-25.5h8.2V129.2z M158.2,85c5.4,0,9.7,4.3,9.7,9.6V109c0,1.3-1.1,2.4-2.4,2.4h-9.9V85L158.2,85z
		 M151.5,48.8v37.5c0,6.8-5.5,12.4-12.4,12.7l0,0l-0.5,0h-9.7v-8.1h1c2.8,0,5.1-2.3,5.1-5.1s-2.3-5.1-5.1-5.1h-1V63.1
		c6.2-2.5,10.3-8.4,10.3-15V36.2C146,36.4,151.5,42,151.5,48.8z M54.9,31.7c0-4.2,3.4-7.6,7.7-7.6h64.8c4.2,0,7.7,3.4,7.7,7.6v16.4
		c0,5.4-3.6,10.2-8.8,11.7l0,0c-1.2,0.4-2.4,0.5-3.6,0.5H67.3c-1.2,0-2.4-0.2-3.6-0.5l0,0c-5.2-1.6-8.8-6.3-8.8-11.7V31.7z
		 M40.5,48.8c0-6,4.3-11.2,10.3-12.4v11.7c0,6.6,4.1,12.5,10.3,15v17.6h-1c-2.8,0-5.1,2.3-5.1,5.1c0,2.8,2.3,5.1,5.1,5.1h1V99h-7.7
		l-0.5,0l0,0l0,0c-6.9-0.2-12.4-5.8-12.4-12.7C40.5,86.3,40.5,48.8,40.5,48.8z M24.1,94.6c0-5.3,4.4-9.6,9.7-9.6h2.6v26.4h-9.9
		c-1.3,0-2.4-1.1-2.4-2.4V94.6z"/>
	<path d="M73.4,32.1h45.2c1.1,0,2.1-0.9,2.1-2s-0.9-2-2.1-2H73.4c-1.1,0-2.1,0.9-2.1,2S72.3,32.1,73.4,32.1z"/>
	<path d="M75.5,163.9h40.9c3.4,0,6.2-2.8,6.2-6.2v0v-24.2c0-3.4-2.8-6.2-6.2-6.2c0,0,0,0,0,0H75.5c-3.4,0-6.2,2.8-6.2,6.2v24.2
		C69.3,161.1,72.1,163.9,75.5,163.9z M75.5,131.5h40.9c1.2,0,2.1,0.9,2.1,2.1c0,5.6-4.6,10.1-10.2,10.1H83.6
		c-5.6,0-10.2-4.5-10.2-10.1c0,0,0,0,0,0C73.4,132.4,74.4,131.5,75.5,131.5z M83.6,147.7h24.8c3.8,0,7.5-1.5,10.2-4.2v14.3
		c0,1.2-1,2.1-2.1,2.1H75.5c-1.2,0-2.1-0.9-2.1-2.1v-14.3C76.1,146.2,79.8,147.7,83.6,147.7z"/>
</g>
</svg>
