<?xml version="1.0" encoding="utf-8"?>
<!-- Generator: Adobe Illustrator 21.1.0, SVG Export Plug-In . SVG Version: 6.00 Build 0)  -->
<svg version="1.1" id="Layer_3" xmlns="http://www.w3.org/2000/svg" xmlns:xlink="http://www.w3.org/1999/xlink" x="0px" y="0px"
	 viewBox="0 0 192 192" style="enable-background:new 0 0 192 192;" xml:space="preserve">
<path d="M167,43h-35c-1.1-6.1-4.9-11.7-11-15.9c-6.8-4.7-15.6-7.3-25-7.3s-18.3,2.6-25,7.3c-6.1,4.3-9.9,9.8-11,15.9H25
	c-2.8,0-5,2.2-5,5v51c0,2.8,2.2,5,5,5v51c0,2.8,2.2,5,5,5h131.9c2.8,0,5-2.2,5-5v-51h0.1c2.8,0,5-2.2,5-5V48
	C172,45.2,169.8,43,167,43z M96,24.8c15.5,0,28.4,7.9,30.9,18.2H65.1C67.6,32.7,80.5,24.8,96,24.8z M47.1,48h97.6v51h-32.8V89
	c0-2.8-2.2-5-5-5H85.2c-2.8,0-5,2.2-5,5v10H47.1V48z M106.8,89v25H85.2V89H106.8z M25,99V48h17.1v51H25z M161.9,155H30v-51h50.2v10
	c0,2.8,2.2,5,5,5h21.7c2.8,0,5-2.2,5-5v-10h50.1V155z M167,99h-17.3V48H167V99z"/>
</svg>
