<?xml version="1.0" encoding="utf-8"?>
<!-- Generator: Adobe Illustrator 21.1.0, SVG Export Plug-In . SVG Version: 6.00 Build 0)  -->
<svg version="1.1" id="Layer_3" xmlns="http://www.w3.org/2000/svg" xmlns:xlink="http://www.w3.org/1999/xlink" x="0px" y="0px"
	 viewBox="0 0 192 192" style="enable-background:new 0 0 192 192;" xml:space="preserve">
<path d="M126.1,45.6h-10v-14h4.9l0-4l0-6.5c0-7.7-6.3-14-14-14H84.8c-7.7,0-14,6.3-14,14v10.5H76v14H65.9c-9.9,0-18,8.1-18,18v94.5
	c0,7.9,5.1,14.6,12.2,17c0.7,5,5.1,8.9,10.3,8.9c4.9,0,9-3.4,10.1-7.9h31.1c1.1,4.5,5.2,7.9,10.1,7.9c5.3,0,9.6-3.9,10.3-8.9
	c7-2.5,12.1-9.2,12.1-17V63.6C144.1,53.7,136,45.6,126.1,45.6z M80,45.6v-14h5l0-4v-6.4h22v10.4h5.1v14H80z M74.8,27.6V21
	c0-5.5,4.5-10,10-10h22.4c5.5,0,10,4.5,10,10l0,6.5H111v-6.4c0-2.2-1.8-4-4-4H85c-2.2,0-4,1.8-4,4v6.4H74.8z M70.4,179
	c-2.1,0-3.9-1.2-4.8-2.9c0.1,0,0.2,0,0.3,0h9.3C74.3,177.8,72.5,179,70.4,179z M121.7,179c-2.1,0-3.9-1.2-4.8-2.9h9.2
	c0.1,0,0.3,0,0.4,0C125.7,177.8,123.8,179,121.7,179z M140.1,158.1c0,5.7-3.4,10.6-8.3,12.8c-1.5,0.7-3.1,1.1-4.9,1.2
	c-0.3,0-0.5,0-0.8,0H65.9c-0.2,0-0.5,0-0.7,0c-1.7-0.1-3.4-0.5-4.9-1.1c-5-2.2-8.4-7.1-8.4-12.8V63.6c0-7.7,6.3-14,14-14h60.3
	c7.7,0,14,6.3,14,14V158.1z"/>
<path d="M61.2,52.5l-7.5,15.7l4.8,2.3l2,0.9l17,8.2l2,0.9l4.8,2.3l7.5-15.7L61.2,52.5z M83.2,80.2l-3.9-1.9l-2.2-1.1l-14.8-7.1
	l-2.2-1.1l-3.9-1.9l5.8-12l26.9,13L83.2,80.2z"/>
<path d="M67.6,124.3l-0.5-5.5c-0.3-3.1-2.8-5.4-5.9-5.4c-0.2,0-0.3,0-0.5,0l-8.9,0.7v2l9-0.7c0.1,0,0.2,0,0.3,0c2,0,3.7,1.6,3.9,3.6
	l0.5,5.5c0.2,2.1-1.4,4-3.6,4.2l-10.1,0.8v2l10.3-0.8C65.4,130.4,67.8,127.6,67.6,124.3z"/>
<path d="M93,121.1l-17.5,6l3,9l17.5-5.9L93,121.1z M78,128.3l13.7-4.7l1.8,5.2l-13.7,4.7L78,128.3z"/>
<path d="M140.1,109.8v-2.1l-15.2-5.8l-3.4,8.9l18.6,7.1v-2.1l-16-6.2l2-5.1L140.1,109.8z"/>
<path style="fill:#231F20;" d="M122.1,151.7c0.1-0.1,0.2-0.4,0.5-0.5l1.8-0.8l-0.8-1.8l-0.2-0.5l-0.8-1.8c-0.6,0.3-1.2,0.6-1.8,0.8
	l0.8,1.9l0.2,0.4c-1.5,0.6-2.2,2.4-1.6,3.9L96.9,163c-0.5-1.1-1.6-1.8-2.7-1.8c-0.4,0-0.8,0.1-1.1,0.2l-2.7-6.4
	c1.5-0.6,2.2-2.4,1.6-3.8l16.2-6.8l1.9-0.8c-0.4-0.5-0.7-1.1-1-1.8l-1.8,0.8l-16,6.7l-1.8,0.8l0.8,1.8c0.1,0.3,0,0.6,0,0.7
	c-0.1,0.1-0.2,0.4-0.5,0.5l-1.8,0.8l0.8,1.8l2.7,6.4l0.8,1.8l1.9-0.8c0.1,0,0.2-0.1,0.4-0.1c0.4,0,0.7,0.2,0.9,0.6l0.8,1.8l1.8-0.8
	l23.4-9.8l1.8-0.8l-0.8-1.9C122,152.1,122.1,151.9,122.1,151.7z"/>
<path style="fill:#231F20;" d="M117.8,126.6c-6.4,0-11.5,5.2-11.5,11.5c0,1.6,0.3,3.2,0.9,4.6c0.3,0.6,0.6,1.2,1,1.8
	c2.1,3.1,5.6,5.2,9.6,5.2c1.4,0,2.7-0.2,3.9-0.7c0.6-0.2,1.2-0.5,1.8-0.8c3.5-2,5.8-5.7,5.8-10C129.4,131.8,124.2,126.6,117.8,126.6
	z M122.8,146.3c-0.6,0.3-1.2,0.6-1.8,0.8c-1,0.3-2,0.5-3.1,0.5c-3.2,0-6-1.6-7.8-4c-0.4-0.5-0.7-1.1-1-1.8c-0.5-1.2-0.8-2.4-0.8-3.8
	c0-5.3,4.3-9.5,9.5-9.5c5.3,0,9.5,4.3,9.5,9.5C127.4,141.6,125.5,144.6,122.8,146.3z"/>
<path style="fill:#231F20;" d="M79.5,78.6l-2.2-1.1c0.2,0.8,0.3,1.5,0.3,2.3v0c0,5.8-4.7,10.5-10.5,10.5s-10.5-4.7-10.5-10.5
	c0-3.3,1.5-6.3,4-8.2c0.6-0.5,1.3-0.9,2-1.3l-2.2-1.1c-0.6,0.4-1.2,0.9-1.8,1.4c-2.5,2.3-4,5.6-4,9.2c0,6.9,5.6,12.5,12.5,12.5
	c6.6,0,12-5.1,12.5-11.6c0-0.3,0-0.6,0-0.9C79.6,79.5,79.6,79,79.5,78.6z"/>
<rect x="116.8" y="49.6" width="2" height="20.7"/>
<path d="M119.3,64.8h-1.5c-0.3,0-0.7,0-1,0.1c-3.2,0.5-5.7,3.3-5.7,6.6v16.2c0,1.2,0.3,2.4,0.9,3.4c0.4,0.6,0.8,1.2,1.4,1.6
	c1.2,1,2.7,1.7,4.4,1.7h1.5c3.7,0,6.7-3,6.7-6.7V71.6C126,67.9,123,64.8,119.3,64.8z M124,87.8c0,2.6-2.1,4.7-4.7,4.7h-1.5
	c-1.3,0-2.5-0.6-3.4-1.5c-0.5-0.6-0.9-1.2-1.2-2c-0.1-0.4-0.2-0.8-0.2-1.3V71.6c0-2.2,1.6-4.1,3.7-4.6c0.3-0.1,0.7-0.1,1-0.1h1.5
	c2.6,0,4.7,2.1,4.7,4.7V87.8z"/>
<rect x="106.1" y="49.6" width="2" height="31.3"/>
<path d="M113.3,89l-1.2,2.2l-4.8,8.3l-9.8-5.7l8.7-15l0.8-1.5l1.2,0.7l3,1.7l2,1.2v-2.3l-2-1.2l-3-1.7l-0.2-0.1l-1.7-1l-0.1,0.2
	l-0.9,1.5l-9.5,16.5l-1,1.7l1.7,1l9.8,5.7l1.7,1l1-1.7l4.4-7.6l1-1.8C113.9,90.5,113.5,89.8,113.3,89z"/>
</svg>
