<?xml version="1.0" encoding="utf-8"?>
<!-- Generator: Adobe Illustrator 21.1.0, SVG Export Plug-In . SVG Version: 6.00 Build 0)  -->
<svg version="1.1" id="Layer_2" xmlns="http://www.w3.org/2000/svg" xmlns:xlink="http://www.w3.org/1999/xlink" x="0px" y="0px"
	 viewBox="0 0 192 192" style="enable-background:new 0 0 192 192;" xml:space="preserve">
<path d="M112.9,28.7h1.4v12.9h6.5V28.7h14.2v12.9h6.5V28.7h1.4c1.8,0,3.2-1.4,3.2-3.2s-1.4-3.2-3.2-3.2h-30c-1.8,0-3.2,1.4-3.2,3.2
	C109.6,27.1,111,28.7,112.9,28.7z"/>
<path d="M161.1,67.9c0-1.8-1.4-3.2-3.2-3.2c-1.8,0-3.2,1.4-3.2,3.2c0,4.8-3.8,8.7-8.7,8.7h-39.3c1,2,1.6,4.2,2,6.5h37.3
	C154.2,83.2,161.1,76.4,161.1,67.9z"/>
<path d="M149.1,166.2c0,0.8-0.8,1.6-1.6,1.6c-0.8,0-1.6-0.8-1.6-1.6c0-0.4,0.2-0.6,0.4-1s0.8-0.6,1.2-0.6c0.6,0,1,0.2,1.2,0.6
	C149.1,165.5,149.1,165.7,149.1,166.2z"/>
<path d="M149.1,166.2c0,0.8-0.8,1.6-1.6,1.6c-0.8,0-1.6-0.8-1.6-1.6c0-0.4,0.2-0.6,0.4-1s0.8-0.6,1.2-0.6c0.6,0,1,0.2,1.2,0.6
	C149.1,165.5,149.1,165.7,149.1,166.2z"/>
<path d="M149.1,166.2c0,0.8-0.8,1.6-1.6,1.6c-0.8,0-1.6-0.8-1.6-1.6c0-0.4,0.2-0.6,0.4-1s0.8-0.6,1.2-0.6c0.6,0,1,0.2,1.2,0.6
	C149.1,165.5,149.1,165.7,149.1,166.2z"/>
<path d="M104.6,144.6V87.1c0-1.2-0.2-2.6-0.4-3.8c-0.4-2.4-1.4-4.6-2.6-6.5c-2-3.4-5.1-6.1-8.7-7.9c-1-0.4-2.2-0.8-3.2-1.2
	c-1-0.2-2.2-0.4-3.2-0.6c-0.6,0-1.2,0-2,0H39.5c-11.1,0-20,9.1-20,20v57.5c0,11.1,9.1,20,20,20h4.9c-0.2,0.4-0.2,1-0.2,1.6
	c0,1,0.2,1.8,0.6,2.6c1,1.8,3,3.2,5.3,3.2s4.3-1.4,5.3-3.2c0.4-0.8,0.6-1.6,0.6-2.6c0-0.6,0-1-0.2-1.6h15c-0.2,0.4-0.2,1-0.2,1.6
	c0,1,0.2,1.8,0.6,2.6c1,1.8,3,3.2,5.3,3.2s4.3-1.4,5.3-3.2c0.4-0.8,0.6-1.6,0.6-2.6c0-0.6,0-1-0.2-1.6h2.4c3,0,5.9-0.6,8.3-1.8
	c1.2-0.6,2.2-1.2,3.2-1.8c1-0.8,2-1.6,2.8-2.4C102.5,154.9,104.6,150,104.6,144.6z M78,166.2c0,0.8-0.8,1.6-1.6,1.6
	c-0.8,0-1.6-0.8-1.6-1.6c0-0.8,0.6-1.4,1.4-1.6h0.2C77.2,164.7,78,165.3,78,166.2z M51.7,166.2c0,0.8-0.8,1.6-1.6,1.6
	s-1.6-0.8-1.6-1.6c0-0.8,0.6-1.4,1.4-1.6h0.2C51.1,164.7,51.7,165.3,51.7,166.2z M39.5,158.1c-7.5,0-13.6-6.1-13.6-13.5V87.1
	c0-7.5,6.1-13.5,13.6-13.5h44.8c0.6,0,1.2,0,2,0.2c1.2,0.2,2.2,0.4,3.2,0.8c1.2,0.4,2.2,1.2,3.2,2c0.6,0.4,1,0.8,1.4,1.4
	c1.4,1.4,2.4,3.2,3,5.2c0.4,1.2,0.6,2.4,0.6,3.8v57.5c0,3.8-1.6,7.3-4.3,9.7c-0.8,0.8-1.6,1.4-2.6,2c-1,0.6-2,1-3,1.2
	c-1.2,0.4-2.4,0.6-3.6,0.6H39.5z"/>
<path style="fill:#CCCCCC;" d="M50.1,164.5h-0.2c-0.8,0.2-1.4,0.8-1.4,1.6s0.8,1.6,1.6,1.6s1.6-0.8,1.6-1.6S51.1,164.7,50.1,164.5z
	 M76.4,164.5h-0.2c-0.8,0.2-1.4,0.8-1.4,1.6s0.8,1.6,1.6,1.6s1.6-0.8,1.6-1.6S77.2,164.7,76.4,164.5z M76.4,164.5h-0.2
	c-0.8,0.2-1.4,0.8-1.4,1.6s0.8,1.6,1.6,1.6s1.6-0.8,1.6-1.6S77.2,164.7,76.4,164.5z M50.1,164.5h-0.2c-0.8,0.2-1.4,0.8-1.4,1.6
	s0.8,1.6,1.6,1.6s1.6-0.8,1.6-1.6S51.1,164.7,50.1,164.5z M50.1,164.5h-0.2c-0.8,0.2-1.4,0.8-1.4,1.6s0.8,1.6,1.6,1.6
	s1.6-0.8,1.6-1.6S51.1,164.7,50.1,164.5z M76.4,164.5h-0.2c-0.8,0.2-1.4,0.8-1.4,1.6s0.8,1.6,1.6,1.6s1.6-0.8,1.6-1.6
	S77.2,164.7,76.4,164.5z"/>
<path d="M79.8,23.2c0,1.8-1.4,3.2-3.2,3.2h-2.4v36.6h-6.5V26.5H55.5v36.6h-6.5V26.5h-2c-1.8,0-3.2-1.4-3.2-3.2
	c0-1.8,1.4-3.2,3.2-3.2h29.6C78.4,20,79.8,21.4,79.8,23.2z"/>
<path d="M89.8,91.5c1.4-2.2,2.2-4.8,2.2-7.7c0-1.4-0.8-2.6-2.2-3c-0.4-0.2-0.8-0.2-1.2-0.2c-0.8,0-1.6,0.4-2.2,0.8
	c-0.6,0.6-1.2,1.4-1.2,2.4c0,4.6-3.6,8.3-8.1,8.3H47.2c-4.5,0-8.1-3.6-8.1-8.3c0-1.8-1.4-3.2-3.2-3.2c-1.8,0-3.2,1.4-3.2,3.2
	c0,8.1,6.5,14.7,14.6,14.7h30c3.4,0,6.7-1.2,9.1-3.2C87.8,94.3,88.8,92.9,89.8,91.5z"/>
<path d="M156,40.7H95.9c-8.9,0-16.1,7.4-16.1,16.4v6h6.9l0.4,0.1c0.1,0,0.2,0,0.2,0v-6.1c0-4.8,3.8-8.8,8.6-8.8H156
	c4.7,0,8.6,3.9,8.6,8.8v91.4c0,4.8-3.8,8.8-8.6,8.8H105c-0.9,1.5-2,2.9-3.3,4.1c-1,1-2.1,1.8-3.2,2.7l-0.2,0.2l-0.2,0.1
	c-0.3,0.2-0.6,0.3-0.9,0.5h4.3c0,0.3-0.1,0.6-0.1,1c0,3.4,2.7,6.2,6,6.2c3.3,0,6-2.8,6-6.2c0-0.3,0-0.6-0.1-1h26.6
	c-0.1,0.3-0.1,0.6-0.1,1c0,3.4,2.7,6.2,6,6.2c3.3,0,6-2.8,6-6.2c0-0.3,0-0.6-0.1-1h4.1c8.9,0,16.1-7.3,16.1-16.4V57.1
	C172.1,48,164.9,40.7,156,40.7z M107.5,167.6c-1,0-1.8-0.8-1.8-1.8c0-0.4,0.1-0.7,0.3-1c0.3-0.5,0.9-0.8,1.5-0.8
	c0.6,0,1.1,0.3,1.4,0.8c0.2,0.3,0.3,0.6,0.3,1C109.3,166.8,108.5,167.6,107.5,167.6z M146,167.6c-1,0-1.7-0.8-1.7-1.8
	c0-0.4,0.1-0.7,0.3-1c0.3-0.5,0.9-0.8,1.5-0.8c0.6,0,1.1,0.3,1.5,0.8c0.2,0.3,0.3,0.6,0.3,1C147.8,166.8,147,167.6,146,167.6z"/>
</svg>
