<?xml version="1.0" encoding="utf-8"?>
<!-- Generator: Adobe Illustrator 21.1.0, SVG Export Plug-In . SVG Version: 6.00 Build 0)  -->
<svg version="1.1" id="Layer_2" xmlns="http://www.w3.org/2000/svg" xmlns:xlink="http://www.w3.org/1999/xlink" x="0px" y="0px"
	 viewBox="0 0 192 192" style="enable-background:new 0 0 192 192;" xml:space="preserve">
<g>
	<path d="M156.8,54.6h-25.1L127.6,41c-1.6-5.3-6.5-9-12.1-9H76.5c-5.6,0-10.5,3.7-12.1,9l-4.1,13.6h-5.5v-2.5c0-1.4-1.1-2.5-2.5-2.5
		H46c-1.4,0-2.5,1.1-2.5,2.5v2.5h-8.2c-8.4,0-15.2,6.7-15.2,15.1v75.3c0,8.3,6.8,15,15.2,15.1h121.6c8.4,0,15.2-6.7,15.2-15.1V69.6
		C172,61.3,165.2,54.6,156.8,54.6z M69.3,42.4c1-3.2,3.9-5.4,7.3-5.4h38.9c3.4,0,6.3,2.2,7.3,5.4l3.6,12.2h-3.2l-3.3-9.9
		c-1-3.1-3.9-5.1-7.2-5.1H79.4c-3.3,0-6.2,2.1-7.2,5.1l-3.3,9.9h-3.2L69.3,42.4z M117.8,54.6H74.2l2.8-8.3c0.3-1,1.3-1.7,2.4-1.7
		h33.2c1.1,0,2.1,0.7,2.4,1.7L117.8,54.6z M35.2,59.6h121.6c5.6,0,10.1,4.5,10.1,10v60.5c-12.6,1.8-22.1,12.2-22.7,24.8H47.8
		c-0.6-12.6-10.1-23-22.7-24.8V69.6C25.1,64.1,29.6,59.6,35.2,59.6z M35.2,155c-5.6,0-10.1-4.5-10.1-10v-9.7
		c9.8,1.7,17.1,9.9,17.7,19.7H35.2z M166.9,144.9c0,5.5-4.5,10-10.1,10h-7.6c0.6-9.8,7.9-18,17.7-19.7V144.9z"/>
	<path d="M135.3,102.3c7.7,0,13.9-6.2,13.9-13.8s-6.2-13.8-13.9-13.8s-13.9,6.2-13.9,13.8C121.3,96.1,127.6,102.3,135.3,102.3z
		 M135.3,79.7c4.9,0,8.9,3.9,8.9,8.8s-4,8.8-8.9,8.8c-4.9,0-8.9-3.9-8.9-8.8S130.4,79.7,135.3,79.7z"/>
	<path d="M66.4,127.7c0.9,1.1,2.5,1.2,3.6,0.3l11.6-9.7c1.1-0.9,1.2-2.5,0.3-3.5c0,0,0,0,0,0L59.8,89c-0.9-1.1-2.5-1.2-3.6-0.3
		l-11.6,9.7c-1.1,0.9-1.2,2.5-0.3,3.5c0,0,0,0,0,0L66.4,127.7z M57.5,94.1L76.3,116l-7.7,6.5l-18.8-21.9L57.5,94.1z"/>
</g>
</svg>
