<?xml version="1.0" encoding="utf-8"?>
<!-- Generator: Adobe Illustrator 21.1.0, SVG Export Plug-In . SVG Version: 6.00 Build 0)  -->
<svg version="1.1" id="Layer_2" xmlns="http://www.w3.org/2000/svg" xmlns:xlink="http://www.w3.org/1999/xlink" x="0px" y="0px"
	 viewBox="0 0 192 192" style="enable-background:new 0 0 192 192;" xml:space="preserve">
<g>
	<path d="M144,80.8h-16.1c8.4-10.5,10.4-24.3,5.3-36.6c4.9-2,8.1-6.5,8.1-11.6c0-7-5.9-12.6-13.2-12.7c-4.5,0-8.7,2.1-11.2,5.7
		c-12.8-7.6-29.1-7.6-41.9,0c-4-5.8-12.3-7.4-18.4-3.6s-7.8,11.6-3.8,17.5c1.4,2.1,3.5,3.7,5.9,4.7c-5.1,12.2-3.1,26.1,5.3,36.6H48
		c-8.8,0-16,6.8-16,15.2s7.2,15.2,16,15.2h10.7v16c-9.9,3.2-16.3,12.1-16,22c0,12.6,9.6,22.8,21.3,22.8c4.5,0,8.9-1.5,12.4-4.3
		c6,3,12.8,4.5,19.6,4.3c6.8,0.2,13.5-1.3,19.6-4.3c3.5,2.8,7.9,4.3,12.4,4.3c11.8,0,21.3-10.2,21.3-22.8c0.3-9.9-6.1-18.8-16-22
		v-16H144c8.8,0,16-6.8,16-15.2S152.8,80.8,144,80.8z M128,25.1c4.4,0,8,3.4,8,7.6c0,3.1-2,5.9-5,7c-2.5-4.2-5.8-8-9.7-11.1
		C122.7,26.4,125.3,25.1,128,25.1z M56,32.7c0-4.2,3.5-7.6,7.9-7.6c2.7,0,5.3,1.3,6.8,3.5c-4,3.1-7.3,6.8-9.7,11.1
		C58,38.5,56,35.8,56,32.7z M48,149.2c0-8.9,6-16.3,13.8-17.5l0,0c0.4-0.1,0.7-0.1,1-0.1c0.4,0,0.8-0.1,1.2-0.1c8.8,0,16,8,16,17.7
		c0,0.6,0,1.3-0.1,1.9c0,0.2,0,0.3-0.1,0.5c-0.1,0.5-0.1,0.9-0.2,1.4c0,0.2-0.1,0.3-0.1,0.5c-0.1,0.4-0.2,0.9-0.3,1.3
		c0,0.2-0.1,0.3-0.2,0.5c-0.1,0.4-0.3,0.8-0.5,1.2c-0.1,0.2-0.1,0.3-0.2,0.5c-0.2,0.4-0.4,0.8-0.6,1.2c-0.1,0.1-0.1,0.3-0.2,0.4
		c-0.2,0.4-0.5,0.8-0.7,1.2c-0.1,0.1-0.1,0.2-0.2,0.3c-0.3,0.4-0.6,0.9-1,1.3l-0.1,0.1c-0.4,0.5-0.8,0.9-1.3,1.3l0,0
		c-2.7,2.6-6.4,4.1-10.2,4.1C55.2,166.9,48,159,48,149.2z M144,149.2c0,9.8-7.2,17.7-16,17.7c-3.9,0-7.5-1.5-10.2-4.1l0,0
		c-0.4-0.4-0.9-0.9-1.3-1.3l-0.1-0.1c-0.3-0.4-0.7-0.8-1-1.3c-0.1-0.1-0.1-0.2-0.2-0.3c-0.3-0.4-0.5-0.8-0.7-1.2
		c-0.1-0.1-0.2-0.3-0.2-0.4c-0.2-0.4-0.4-0.8-0.6-1.2c-0.1-0.2-0.1-0.3-0.2-0.5c-0.2-0.4-0.3-0.8-0.5-1.2c-0.1-0.2-0.1-0.3-0.2-0.5
		c-0.1-0.4-0.2-0.9-0.3-1.3c0-0.2-0.1-0.3-0.1-0.5c-0.1-0.5-0.2-0.9-0.2-1.4c0-0.2,0-0.3-0.1-0.5c-0.1-0.6-0.1-1.2-0.1-1.9
		c0-9.8,7.2-17.7,16-17.7c0.4,0,0.8,0,1.2,0.1c0.3,0,0.7,0.1,1,0.1l0,0C138,132.9,144,140.3,144,149.2z M144,106.1h-13.3
		c-1.5,0-2.7,1.1-2.7,2.5v17.7c-11.8,0-21.3,10.2-21.3,22.8c0,0.7,0,1.5,0.1,2.2c0,0.3,0.1,0.5,0.1,0.8c0.1,0.4,0.1,0.9,0.2,1.3
		c0.1,0.3,0.1,0.6,0.2,1c0.1,0.4,0.2,0.7,0.3,1.1c0.1,0.4,0.2,0.7,0.3,1c0.1,0.3,0.2,0.7,0.4,1s0.2,0.6,0.4,0.9
		c0.1,0.3,0.3,0.7,0.5,1c0.1,0.3,0.3,0.6,0.4,0.8c0.2,0.4,0.4,0.7,0.6,1.1c0.1,0.2,0.3,0.4,0.4,0.7c0.3,0.4,0.6,0.8,0.9,1.2
		c0.1,0.1,0.2,0.3,0.3,0.4c0,0,0.1,0.1,0.1,0.1c-4.9,2.1-10.3,3.2-15.7,3c-5.4,0.1-10.8-0.9-15.7-3c0,0,0.1-0.1,0.1-0.1
		c0.1-0.1,0.2-0.3,0.3-0.4c0.3-0.4,0.6-0.8,0.9-1.2c0.1-0.2,0.3-0.4,0.4-0.7c0.2-0.4,0.4-0.7,0.6-1.1c0.1-0.3,0.3-0.5,0.4-0.8
		c0.2-0.3,0.3-0.7,0.5-1c0.1-0.3,0.2-0.6,0.4-0.9c0.1-0.3,0.2-0.7,0.4-1c0.1-0.3,0.2-0.6,0.3-1s0.2-0.7,0.3-1.1
		c0.1-0.3,0.1-0.6,0.2-1c0.1-0.4,0.1-0.9,0.2-1.3c0-0.3,0.1-0.5,0.1-0.8c0.1-0.7,0.1-1.4,0.1-2.2c0-12.6-9.6-22.8-21.3-22.8v-17.7
		c0-1.4-1.2-2.5-2.7-2.5H48c-5.9,0-10.7-4.5-10.7-10.1c0-5.6,4.8-10.1,10.7-10.1h21.9c1.5,0,2.7-1.1,2.7-2.5c0-0.8-0.4-1.6-1.1-2
		c-0.1-0.1-0.1-0.2-0.2-0.3C61,71.1,58.4,56.1,64.9,43.6c1.8-3.6,4.3-6.8,7.4-9.6l0.2-0.2c13.3-11.7,33.8-11.7,47,0l0.2,0.2
		c3,2.7,5.6,6,7.4,9.6c6.5,12.7,3.8,28-6.9,37.9c-1.1,0.9-1.1,2.5-0.1,3.6c0.5,0.5,1.2,0.8,1.9,0.8H144c5.9,0,10.7,4.5,10.7,10.1
		C154.7,101.6,149.9,106.1,144,106.1z"/>
	<path d="M96,80.8c10.3,0,18.7-6.8,18.7-15.2S106.3,50.4,96,50.4s-18.7,6.8-18.7,15.2S85.7,80.8,96,80.8z M96,55.5
		c7.4,0,13.3,4.5,13.3,10.1s-6,10.1-13.3,10.1s-13.3-4.5-13.3-10.1S88.6,55.5,96,55.5z"/>
	<ellipse cx="96" cy="60.5" rx="5.3" ry="5.1"/>
	<rect x="80" y="42.8" width="5.3" height="5.1"/>
	<rect x="106.7" y="42.8" width="5.3" height="5.1"/>
	<path d="M115.9,85.9c-0.7-0.2-1.4-0.1-2,0.3c-2.6,1.5-5.5,2.7-8.4,3.4C99.8,91.1,94,91.2,88.3,90c-3.4-0.7-6.7-1.9-9.7-3.5
		c-1.3-0.7-2.9-0.3-3.6,0.9c0,0,0,0,0,0c-0.3,0.5-0.4,1.1-0.3,1.7c0,0.1,0,0.2,0,0.3c0.2,0.7,0.6,1.2,1.2,1.6
		c12.6,6.9,28.1,6.8,40.6-0.3c1.3-0.7,1.7-2.3,0.9-3.5C117.1,86.5,116.5,86.1,115.9,85.9L115.9,85.9z"/>
	<path d="M113.4,101.4c-0.8-0.5-1.8-0.5-2.6-0.1l-14.8,7l-14.8-7c-1.3-0.6-2.9-0.1-3.6,1.1c-0.2,0.4-0.3,0.7-0.3,1.1v15.2
		c0,1.4,1.2,2.5,2.7,2.5c0.4,0,0.8-0.1,1.2-0.3l14.8-7l14.8,7c1.3,0.6,2.9,0.1,3.6-1.1c0.2-0.4,0.3-0.7,0.3-1.1v-15.2
		C114.7,102.7,114.2,101.9,113.4,101.4z M82.7,114.7v-7l7.4,3.5L82.7,114.7z M109.3,114.7l-7.4-3.5l7.4-3.5V114.7z"/>
</g>
</svg>
