<svg viewBox="0 0 188.149 188.149"  width="188.149" height="188.149" xmlns="http://www.w3.org/2000/svg" xmlns:xlink="http://www.w3.org/1999/xlink">
 <g>
  <title>background</title>
  <rect fill="none" id="canvas_background" height="402" width="582" y="-1" x="-1"/>
 </g>
 <g>
  <title>Layer 1</title>
  <g id="svg_1">
   <g id="svg_2">

    <path id="svg_5" clip-path="url(#SVGID_2_)" fill="#ECC19C" d="m126.708,153.946l-0.02,0c-2.041,-1.545 -4.178,-2.919 -6.429,-4.159c-0.058,-0.038 -0.115,-0.076 -0.191,-0.095c-10.646,-5.876 -17.857,-17.209 -17.857,-30.239l-16.121,-0.077c0,13.069 -7.269,24.459 -18.01,30.315c0,0 -0.019,0 -0.038,0.019c-2.271,1.24 -4.445,2.633 -6.506,4.159c-13.355,9.94 -21.997,25.832 -21.997,43.766l109.07,0c0.001,-17.895 -8.603,-33.75 -21.901,-43.689z"/>
    <path id="svg_6" clip-path="url(#SVGID_2_)" fill="#168EF7" d="m148.609,197.629l-109.071,0c0,-17.934 8.642,-33.826 21.997,-43.766c2.061,-1.526 4.235,-2.919 6.505,-4.159c0.02,-0.019 0.039,-0.019 0.039,-0.019c1.755,-0.973 3.434,-2.08 4.979,-3.339c5.342,5.476 12.802,8.872 21.063,8.872c8.242,0 15.683,-3.396 21.024,-8.853c1.526,1.259 3.187,2.366 4.922,3.32c0.076,0.019 0.134,0.057 0.191,0.095c2.251,1.24 4.388,2.614 6.429,4.159l0.02,0c13.298,9.94 21.902,25.794 21.902,43.69z"/>
    <path id="svg_7" clip-path="url(#SVGID_2_)" fill="#ECC19C" d="m52.217,38.091l0,42.836c0,28.976 25.437,52.465 41.858,52.465c16.419,0 41.858,-23.489 41.858,-52.465l0,-42.836l-83.716,0z"/>
    <path id="svg_8" clip-path="url(#SVGID_2_)" fill="#494846" d="m129.114,30.207c-9.123,-11.423 -22.972,-18.726 -38.463,-18.726c-27.521,0 -49.81,22.972 -49.81,51.301c0,15.036 6.267,28.556 16.274,37.932c-2.578,-6.47 -4.018,-13.722 -4.018,-21.38c0,-12.307 3.74,-23.578 9.957,-32.246c6.596,2.932 17.286,3.993 29.011,2.376c11.625,-1.592 21.531,-5.433 27.116,-10.007c10.185,8.996 16.806,23.502 16.806,39.877c0,8.39 -1.719,16.275 -4.802,23.199c9.83,-4.069 17.058,-18.574 17.058,-35.835c0,-18.473 -8.289,-33.711 -19.129,-36.491z"/>
   </g>
  </g>
  <g id="svg_9"/>
  <g id="svg_10"/>
  <g id="svg_11"/>
  <g id="svg_12"/>
  <g id="svg_13"/>
  <g id="svg_14"/>
  <g id="svg_15"/>
  <g id="svg_16"/>
  <g id="svg_17"/>
  <g id="svg_18"/>
  <g id="svg_19"/>
  <g id="svg_20"/>
  <g id="svg_21"/>
  <g id="svg_22"/>
  <g id="svg_23"/>
 </g>
</svg>