<?xml version="1.0" encoding="utf-8"?>
<!-- Generator: Adobe Illustrator 21.1.0, SVG Export Plug-In . SVG Version: 6.00 Build 0)  -->
<svg version="1.1" id="Capa_1" xmlns="http://www.w3.org/2000/svg" xmlns:xlink="http://www.w3.org/1999/xlink" x="0px" y="0px"
	 viewBox="0 0 512 512" style="enable-background:new 0 0 512 512;" xml:space="preserve">
<style type="text/css">
	.st0{fill:#495059;}
	.st1{fill:#F5D7B7;}
	.st2{opacity:0.1;enable-background:new    ;}
	.st3{fill:#38648C;}
	.st4{fill:#F28B74;}
	.st5{opacity:5.000000e-02;enable-background:new    ;}
	.st6{fill:#76B7EB;}
	.st7{opacity:0.1;}
</style>
<path class="st0" d="M408.5,109.2c-1.4,0-2.9-0.6-4-1.7c-2.2-2.2-2.2-5.8,0-8l10-10c7.5-7.5,16.8-13,26.9-15.9c3-0.9,6.1,0.9,7,3.9
	c0.9,3-0.9,6.1-3.9,7c-8.3,2.4-15.9,6.9-22.1,13l-10,10C411.4,108.6,409.9,109.2,408.5,109.2z"/>
<circle class="st1" cx="262.3" cy="102.3" r="39.3"/>
<circle class="st2" cx="262.3" cy="102.3" r="39.3"/>
<circle class="st1" cx="409.7" cy="249.7" r="39.3"/>
<circle class="st2" cx="409.7" cy="249.7" r="39.3"/>
<circle class="st3" cx="138.7" cy="373.3" r="75.7"/>
<path class="st2" d="M192.3,426.8c29.6-29.6,29.6-77.5,0-107.1s-77.5-29.6-107.1,0C73.5,331.4,66.4,346,64,361.2
	c6.2,4.4,14.8,8.6,26.5,13.2c9.9,3.8,21.9,7.8,35.5,11.7c3.9,13.6,7.9,25.7,11.7,35.5c4.5,11.7,8.8,20.3,13.1,26.5
	C166,445.6,180.6,438.5,192.3,426.8z"/>
<ellipse transform="matrix(0.7071 -0.7071 0.7071 0.7071 -28.702 288.0301)" class="st1" cx="333.3" cy="178.7" rx="116.1" ry="113.5"/>
<g>
	
		<ellipse transform="matrix(0.7071 -0.7071 0.7071 0.7071 -14.8243 241.9078)" class="st4" cx="284.6" cy="138.8" rx="18.4" ry="23.1"/>
	
		<ellipse transform="matrix(0.7071 -0.7071 0.7071 0.7071 -51.5061 330.4684)" class="st4" cx="373.2" cy="227.4" rx="18.4" ry="23.1"/>
</g>
<g>
	<path class="st0" d="M316.1,147.6c-1.4,0-2.9-0.6-4-1.7c-2.2-2.2-2.2-5.8,0-8c1-1,1.6-2.3,1.6-3.8c0-1.4-0.6-2.8-1.6-3.8
		c-1-1-2.4-1.6-3.8-1.6c-1.4,0-2.8,0.6-3.8,1.6c-2.2,2.2-5.8,2.2-8,0c-2.2-2.2-2.2-5.8,0-8c3.1-3.1,7.3-4.9,11.8-4.9
		c4.4,0,8.6,1.7,11.8,4.9c3.1,3.1,4.9,7.3,4.9,11.8c0,4.4-1.7,8.6-4.9,11.8C318.9,147.1,317.5,147.6,316.1,147.6z"/>
	<path class="st0" d="M385.6,217.2c-1.4,0-2.9-0.6-4-1.7c-2.2-2.2-2.2-5.8,0-8c1-1,1.6-2.4,1.6-3.8c0-1.4-0.6-2.8-1.6-3.8
		c-2.1-2.1-5.5-2.1-7.6,0c-2.2,2.2-5.8,2.2-8,0c-2.2-2.2-2.2-5.8,0-8c6.5-6.5,17.1-6.5,23.5,0c3.1,3.1,4.9,7.3,4.9,11.8
		s-1.7,8.6-4.9,11.8C388.5,216.6,387,217.2,385.6,217.2z"/>
	<path class="st0" d="M341.1,192c-5.6,0-11-2.2-14.9-6.2c-4.3-4.3-6.6-10.3-6.1-16.4c0.2-3.1,2.9-5.5,6-5.3c3.1,0.2,5.5,2.9,5.3,6
		c-0.2,2.8,0.8,5.6,2.8,7.6c2,2,4.8,3,7.6,2.8c3.1-0.2,5.8,2.1,6,5.3c0.2,3.1-2.1,5.8-5.3,6C342.1,192,341.6,192,341.1,192z"/>
</g>
<path class="st5" d="M302.5,68.8c-18,5.4-35.1,15.3-49.4,29.6c-45.3,45.3-46.1,118-1.8,162.4c25.7,25.7,61,36.2,94.9,31.7
	C273.8,268.4,251.6,147.6,302.5,68.8z"/>
<path class="st6" d="M161.1,229.5c46.2,0.6,150.7,11.6,210.8,43c9.4,4.9,13.6,16,9.9,25.9c-9.4,25.1-34.3,62.3-57.1,84.6
	c-11.5,11.3-27.3,17.2-43.4,16.3c-63.6-3.6-203.8-35.9-214-56.8c-10.4-21.3,22.2-75.9,61.2-103C138.1,232.8,149.5,229.4,161.1,229.5
	z"/>
<path class="st2" d="M161.1,229.5c46.2,0.6,150.7,11.6,210.8,43c9.4,4.9,13.6,16,9.9,25.9c-9.4,25.1-34.3,62.3-57.1,84.6
	c-11.5,11.3-27.3,17.2-43.4,16.3c-63.6-3.6-203.8-35.9-214-56.8c-10.4-21.3,22.2-75.9,61.2-103C138.1,232.8,149.5,229.4,161.1,229.5
	z"/>
<path class="st2" d="M128.5,239.4c-10,6.9-19.6,15.7-28.1,25.2c3.9,29.1,10.7,64,19,96.9c0.6,2.2,1.1,4.4,1.7,6.6
	c48.9,15,119.1,28.6,159.4,31.1c1.7-2.2,3.4-4.5,5-6.7c8.5-12.2,12.9-26.7,12.7-41.8c-0.2-20.1-2.9-61.6-10.7-106.2
	c-48.3-10.4-98.1-14.6-126.4-14.9C149.5,229.4,138.1,232.8,128.5,239.4z"/>
<path class="st6" d="M282.5,350.9c-0.6-46.2-11.6-150.7-43-210.8c-4.9-9.4-16-13.6-25.9-9.9c-25.1,9.4-62.3,34.3-84.6,57.1
	c-11.3,11.5-17.2,27.3-16.3,43.4c3.6,63.6,35.9,203.8,56.8,214c21.3,10.4,75.9-22.2,103-61.2C279.2,373.9,282.6,362.5,282.5,350.9z"
	/>
<g class="st7">
	<path d="M149.9,306.3c-2.6,0-5-1.9-5.5-4.5c-0.5-2.4-2.7-17.1-2.7-20c0-3.1,2.5-5.7,5.7-5.7c3.1,0,5.6,2.5,5.7,5.6
		c0.1,1.9,1.9,15,2.5,17.8c0.6,3.1-1.4,6-4.4,6.7C150.7,306.3,150.3,306.3,149.9,306.3z M153,281.8L153,281.8L153,281.8z"/>
	<path d="M211.5,203.6c-0.6,0-1.2-0.1-1.8-0.3c-3-1-4.6-4.2-3.6-7.2c0.4-1.2,1.5-3.6,4.1-8.8c0.7-1.4,1.4-2.8,1.6-3.3
		c1.3-2.8,4.6-4.1,7.5-2.8c2.8,1.3,4.1,4.6,2.8,7.5c-0.3,0.7-0.9,2-1.7,3.6c-1.1,2.3-3.2,6.5-3.5,7.4
		C216,202.1,213.8,203.6,211.5,203.6z"/>
	<path d="M237.8,313.7c-1,0-1.9-0.2-2.8-0.8c-2.8-1.6-10.5-6-13-7.2c-2.8-1.3-4.1-4.6-2.8-7.5s4.6-4.1,7.5-2.8
		c3.5,1.6,12.9,7.1,14,7.7c2.7,1.6,3.6,5,2.1,7.7C241.6,312.7,239.7,313.7,237.8,313.7z"/>
	<path d="M199,408.5c-3.1,0-5.7-2.5-5.7-5.7c0-3.1-0.8-14.9-1.2-20.5c-0.1-1.8-0.2-3.2-0.3-3.8c-0.2-3.1,2.2-5.8,5.3-6
		c3.1-0.2,5.8,2.2,6,5.3c0,0.6,0.1,1.9,0.2,3.7c0.6,8.6,1.2,18.1,1.2,21.3C204.7,406,202.2,408.5,199,408.5z"/>
	<path d="M310.7,310c-2.3,0-4.5-1.5-5.3-3.8c-1-2.9,0.5-6.2,3.5-7.2c2.2-0.8,7.3-3.8,10.6-5.8c4.9-2.9,6.6-3.9,8.2-4.2
		c3.1-0.6,6,1.4,6.7,4.4c0.6,2.9-1.1,5.7-3.9,6.5c-0.8,0.4-3.3,1.9-5.1,3c-4.4,2.6-9.4,5.6-12.7,6.8C312,309.9,311.3,310,310.7,310z
		 M329.8,300.1C329.8,300.1,329.8,300.1,329.8,300.1C329.8,300.1,329.8,300.1,329.8,300.1z"/>
</g>
</svg>
