<?xml version="1.0" encoding="utf-8"?>
<!-- Generator: Adobe Illustrator 21.1.0, SVG Export Plug-In . SVG Version: 6.00 Build 0)  -->
<svg version="1.1" id="Layer_1" xmlns="http://www.w3.org/2000/svg" xmlns:xlink="http://www.w3.org/1999/xlink" x="0px" y="0px"
	 viewBox="0 0 59.7 67.1" width="59.7px" height="67.1px" style="enable-background:new 0 0 59.7 67.1;" xml:space="preserve">
<g>
	<path d="M51.2,22.7c-0.2,0-0.3,0-0.5,0l-1.8,0.1l0.7-1.7c0.1-0.3,0.3-0.7,0.3-1.1c0-0.1,0.1-0.2,0.1-0.3c0-0.1,0-0.2,0.1-0.4
		c0-0.1,0-0.3,0.1-0.4c0-0.1,0-0.2,0-0.3c0-0.2,0-0.5,0-0.7c0-4.7-4-8.5-8.9-8.5c-1.5,0-3.1,0.4-4.4,1.1l-0.5,0.3l-0.7,0.4l-0.4-1.4
		C33.6,4.1,28.3,0,22.3,0C14.9,0,8.9,6,8.9,13.5c0,1.4,0.2,2.7,0.6,4.1l0.4,1.2L8.7,19C3.6,19.9,0,24.1,0,29
		c0,5.6,4.8,10.2,10.7,10.2h40.5c4.7,0,8.6-3.7,8.6-8.3C59.7,26.4,55.9,22.7,51.2,22.7z"/>
	<g>
		<g>
			<path d="M38.9,60.7c-0.1,0-0.1,0-0.2,0c-0.6-0.1-1.1-0.6-1.1-1.3V43.7c0-0.7,0.6-1.3,1.3-1.3s1.3,0.6,1.3,1.3v11.8
				c1.2-1,2.7-1.7,4.7-1.5c0.7,0,1.2,0.7,1.2,1.4c0,0.7-0.7,1.2-1.4,1.2c-3.3-0.2-4.6,3.3-4.6,3.3C39.9,60.4,39.4,60.7,38.9,60.7z"
				/>
		</g>
		<g>
			<circle cx="50.1" cy="55.9" r="2.6"/>
		</g>
	</g>
	<g>
		<g>
			<path d="M20.9,55.8c-0.5,0-1-0.3-1.2-0.9c-0.1-0.1-1.3-3.5-4.6-3.3c-0.7,0.1-1.3-0.5-1.4-1.2c0-0.7,0.5-1.3,1.2-1.4
				c2-0.1,3.5,0.5,4.7,1.5v-6.9c0-0.7,0.6-1.3,1.3-1.3c0.7,0,1.3,0.6,1.3,1.3v10.8c0,0.6-0.5,1.2-1.1,1.3
				C21,55.8,20.9,55.8,20.9,55.8z"/>
		</g>
		<g>
			<circle cx="9.6" cy="50.9" r="2.6"/>
		</g>
	</g>
	<g>
		<path d="M30,60.2c-0.7,0-1.3-0.6-1.3-1.3V43.7c0-0.7,0.6-1.3,1.3-1.3c0.7,0,1.3,0.6,1.3,1.3v15.2C31.2,59.6,30.7,60.2,30,60.2z"/>
	</g>
	<g>
		<circle cx="30" cy="64.5" r="2.6"/>
	</g>
</g>
</svg>
