<?xml version="1.0" encoding="utf-8"?>
<!-- Generator: Adobe Illustrator 21.1.0, SVG Export Plug-In . SVG Version: 6.00 Build 0)  -->
<svg version="1.1" id="Layer_1" xmlns="http://www.w3.org/2000/svg" xmlns:xlink="http://www.w3.org/1999/xlink" x="0px" y="0px"
	 viewBox="0 0 59.7 59.7" style="enable-background:new 0 0 59.7 59.7;" xml:space="preserve">
<g>
	<path d="M18.6,47.1L18.1,42l-3.7,3.6c-0.3,0.3-0.6,0.7-0.8,1.1c-0.5,1.4,0.2,2.9,1.6,3.4c1.4,0.5,2.9-0.2,3.4-1.6
		C18.7,48,18.7,47.6,18.6,47.1z"/>
	<path d="M32.8,47.1L32.3,42l-3.7,3.6c-0.3,0.3-0.6,0.7-0.8,1.1c-0.5,1.4,0.2,2.9,1.6,3.4c1.4,0.5,2.9-0.2,3.4-1.6
		C32.9,48,32.9,47.6,32.8,47.1z"/>
	<path d="M47,47.1L46.5,42l-3.7,3.6c-0.3,0.3-0.6,0.7-0.8,1.1c-0.5,1.4,0.2,2.9,1.6,3.4c1.4,0.5,2.9-0.2,3.4-1.6
		C47.1,48,47.1,47.6,47,47.1z"/>
	<path d="M9.6,56.6l-0.5-5.2L5.4,55c-0.3,0.3-0.6,0.7-0.8,1.1c-0.5,1.4,0.2,2.9,1.6,3.4C7.5,60,9,59.3,9.5,57.9
		C9.7,57.5,9.7,57,9.6,56.6z"/>
	<path d="M23.8,56.6l-0.5-5.2L19.6,55c-0.3,0.3-0.6,0.7-0.8,1.1c-0.5,1.4,0.2,2.9,1.6,3.4c1.4,0.5,2.9-0.2,3.4-1.6
		C23.9,57.5,23.9,57,23.8,56.6z"/>
	<path d="M38,56.6l-0.5-5.2L33.8,55c-0.3,0.3-0.6,0.7-0.8,1.1c-0.5,1.4,0.2,2.9,1.6,3.4c1.4,0.5,2.9-0.2,3.4-1.6
		C38.1,57.5,38.1,57,38,56.6z"/>
	<path d="M51.2,22.7c-0.2,0-0.3,0-0.5,0l-1.8,0.1l0.7-1.7c0.1-0.3,0.3-0.7,0.3-1.1c0-0.1,0.1-0.2,0.1-0.3c0-0.1,0-0.2,0.1-0.4
		c0-0.1,0-0.3,0.1-0.4c0-0.1,0-0.2,0-0.3c0-0.2,0-0.5,0-0.7c0-4.7-4-8.5-8.9-8.5c-1.5,0-3.1,0.4-4.4,1.1l-0.5,0.3l-0.7,0.4l-0.4-1.4
		C33.6,4.1,28.3,0,22.3,0C14.9,0,8.9,6,8.9,13.5c0,1.4,0.2,2.7,0.6,4.1l0.4,1.2L8.7,19C3.6,19.9,0,24.1,0,29
		c0,5.6,4.8,10.2,10.7,10.2h40.5c4.7,0,8.6-3.7,8.6-8.3C59.7,26.4,55.9,22.7,51.2,22.7z"/>
</g>
</svg>
