<?xml version="1.0" encoding="utf-8"?>
<!-- Generator: Adobe Illustrator 21.1.0, SVG Export Plug-In . SVG Version: 6.00 Build 0)  -->
<svg version="1.1" id="Layer_1" xmlns="http://www.w3.org/2000/svg" xmlns:xlink="http://www.w3.org/1999/xlink" x="0px" y="0px"
	 viewBox="0 0 44.8 40.9" style="enable-background:new 0 0 44.8 40.9;" xml:space="preserve">
<g>
	<path d="M31.7,19.7l-7.1,0.1l3.5-6.2c0.5-0.9,0.2-2-0.7-2.5c-0.9-0.5-2-0.2-2.6,0.7l-3.5,6.2l-3.6-6.1c-0.5-0.9-1.7-1.2-2.6-0.7
		c-0.9,0.5-1.2,1.7-0.7,2.6l3.6,6.1L11,19.8c-1,0-1.9,0.9-1.9,1.9c0,1,0.8,1.9,1.9,1.9c0,0,0,0,0,0l7.1-0.1l-3.5,6.2
		c-0.5,0.9-0.2,2,0.7,2.5c0.3,0.2,0.6,0.2,0.9,0.2c0.7,0,1.3-0.3,1.6-0.9l3.5-6.2l3.6,6.1c0.3,0.6,1,0.9,1.6,0.9
		c0.3,0,0.6-0.1,0.9-0.3c0.9-0.5,1.2-1.7,0.7-2.6l-3.6-6.1l7.1-0.1c1,0,1.9-0.9,1.9-1.9C33.6,20.5,32.8,19.6,31.7,19.7z"/>
	<path d="M43.7,5.3l-4.2,0l2.1-3.7c0.3-0.5,0.1-1.2-0.4-1.5c-0.5-0.3-1.2-0.1-1.5,0.4l-2.1,3.7l-2.1-3.6c-0.3-0.5-1-0.7-1.5-0.4
		c-0.5,0.3-0.7,1-0.4,1.5l2.1,3.6l-4.2,0c-0.6,0-1.1,0.5-1.1,1.1c0,0.6,0.5,1.1,1.1,1.1c0,0,0,0,0,0l4.2,0l-2.1,3.7
		c-0.3,0.5-0.1,1.2,0.4,1.5c0.2,0.1,0.4,0.1,0.5,0.1c0.4,0,0.8-0.2,1-0.6l2.1-3.6l2.1,3.6c0.2,0.4,0.6,0.5,1,0.5
		c0.2,0,0.4-0.1,0.6-0.2c0.5-0.3,0.7-1,0.4-1.5l-2.1-3.6l4.2,0c0.6,0,1.1-0.5,1.1-1.1C44.8,5.7,44.3,5.2,43.7,5.3z"/>
	<path d="M40.4,35.7l-2.9,0l1.4-2.5c0.2-0.4,0.1-0.8-0.3-1c-0.4-0.2-0.8-0.1-1,0.3L36.3,35l-1.5-2.5c-0.2-0.4-0.7-0.5-1-0.3
		c-0.4,0.2-0.5,0.7-0.3,1l1.5,2.5l-2.9,0c-0.4,0-0.8,0.3-0.7,0.8c0,0.4,0.3,0.8,0.8,0.8c0,0,0,0,0,0l2.9,0l-1.4,2.5
		c-0.2,0.4-0.1,0.8,0.3,1c0.1,0.1,0.2,0.1,0.4,0.1c0.3,0,0.5-0.1,0.7-0.4l1.4-2.5l1.5,2.5c0.1,0.2,0.4,0.4,0.7,0.4
		c0.1,0,0.3,0,0.4-0.1c0.4-0.2,0.5-0.7,0.3-1l-1.5-2.5l2.9,0c0.4,0,0.8-0.3,0.8-0.8C41.2,36.1,40.9,35.7,40.4,35.7z"/>
	<path d="M7.8,29.2l-2.5,0l1.2-2.1c0.2-0.3,0.1-0.7-0.2-0.9C6,26,5.6,26.2,5.4,26.5l-1.2,2.1L3,26.5c-0.2-0.3-0.6-0.4-0.9-0.2
		c-0.3,0.2-0.4,0.6-0.2,0.9l1.3,2.1l-2.5,0c-0.4,0-0.6,0.3-0.6,0.7c0,0.4,0.3,0.6,0.6,0.6c0,0,0,0,0,0l2.5,0l-1.2,2.1
		c-0.2,0.3-0.1,0.7,0.2,0.9c0.1,0.1,0.2,0.1,0.3,0.1c0.2,0,0.4-0.1,0.6-0.3l1.2-2.1l1.2,2.1c0.1,0.2,0.3,0.3,0.6,0.3
		c0.1,0,0.2,0,0.3-0.1c0.3-0.2,0.4-0.6,0.2-0.9l-1.3-2.1l2.5,0c0.4,0,0.6-0.3,0.6-0.7C8.5,29.5,8.2,29.2,7.8,29.2z"/>
</g>
</svg>
