<?xml version="1.0" encoding="utf-8"?>
<!-- Generator: Adobe Illustrator 21.1.0, SVG Export Plug-In . SVG Version: 6.00 Build 0)  -->
<svg version="1.1" id="Layer_1" xmlns="http://www.w3.org/2000/svg" xmlns:xlink="http://www.w3.org/1999/xlink" x="0px" y="0px"
	 viewBox="0 0 59.2 59.2" style="enable-background:new 0 0 59.2 59.2;" xml:space="preserve">
<g>
	<path d="M39.8,19.4c-2.7-2.7-6.4-4.2-10.2-4.2c-3.9,0-7.5,1.5-10.2,4.2c-5.6,5.6-5.6,14.8,0,20.4c2.7,2.7,6.4,4.2,10.2,4.2
		c3.9,0,7.5-1.5,10.2-4.2C45.5,34.2,45.5,25,39.8,19.4z"/>
	<path d="M29.6,11c0.8,0,1.4-0.6,1.4-1.4V1.4C31,0.6,30.4,0,29.6,0c-0.7,0-1.4,0.6-1.4,1.4v8.3C28.3,10.4,28.9,11,29.6,11z"/>
	<path d="M14.5,16.4c0.3,0.3,0.6,0.4,1,0.4s0.7-0.1,1-0.4c0.5-0.5,0.5-1.4,0-1.9l-5.8-5.9c-0.5-0.5-1.4-0.5-1.9,0
		c-0.5,0.5-0.5,1.4,0,1.9L14.5,16.4z"/>
	<path d="M11,29.6c0-0.8-0.6-1.4-1.4-1.4l-8.3,0c-0.8,0-1.4,0.6-1.4,1.4S0.6,31,1.4,31l8.3,0C10.4,31,11,30.4,11,29.6z"/>
	<path d="M14.5,42.8l-5.9,5.8c-0.5,0.5-0.5,1.4,0,1.9c0.3,0.3,0.6,0.4,1,0.4c0.3,0,0.7-0.1,1-0.4l5.8-5.8c0.5-0.5,0.5-1.4,0-1.9
		C15.9,42.3,15.1,42.3,14.5,42.8z"/>
	<path d="M29.6,48.2c-0.8,0-1.4,0.6-1.4,1.4v8.3c0,0.8,0.6,1.4,1.4,1.4s1.4-0.6,1.4-1.4v-8.3C31,48.8,30.4,48.2,29.6,48.2z"/>
	<path d="M44.7,42.8c-0.5-0.5-1.4-0.5-1.9,0c-0.5,0.5-0.5,1.4,0,1.9l5.8,5.8c0.3,0.3,0.6,0.4,1,0.4c0.3,0,0.7-0.1,1-0.4
		c0.5-0.5,0.5-1.4,0-1.9L44.7,42.8z"/>
	<path d="M57.9,28.3h-8.3c-0.8,0-1.4,0.6-1.4,1.4s0.6,1.4,1.4,1.4h8.3c0.8,0,1.4-0.6,1.4-1.4S58.6,28.3,57.9,28.3z"/>
	<path d="M43.7,16.8c0.3,0,0.7-0.1,1-0.4l5.8-5.9c0.5-0.5,0.5-1.4,0-1.9c-0.5-0.5-1.4-0.5-1.9,0l-5.8,5.9c-0.5,0.5-0.5,1.4,0,1.9
		C43,16.7,43.4,16.8,43.7,16.8z"/>
</g>
</svg>
