<?xml version="1.0" encoding="utf-8"?>
<!-- Generator: Adobe Illustrator 21.1.0, SVG Export Plug-In . SVG Version: 6.00 Build 0)  -->
<svg version="1.1" id="Layer_1" xmlns="http://www.w3.org/2000/svg" xmlns:xlink="http://www.w3.org/1999/xlink" x="0px" y="0px"
	 viewBox="0 0 41.1 100" style="enable-background:new 0 0 41.1 100;" xml:space="preserve">
<style type="text/css">
	.temp-mid-fill{fill:#6B6B6B;}
</style>
<g>
	<path d="M32.9,63V12.3C32.9,5.5,27.3,0,20.5,0S8.2,5.5,8.2,12.3V63C3.1,66.9,0,72.9,0,79.5C0,90.8,9.2,100,20.5,100
		s20.5-9.2,20.5-20.5C41.1,72.9,38,66.9,32.9,63z M20.5,94.5c-8.3,0-15.1-6.7-15.1-15.1c0-5.9,3.3-10.9,8.2-13.4V12.3
		c0-3.8,3.1-6.8,6.8-6.8s6.8,3.1,6.8,6.8V66c4.9,2.5,8.2,7.6,8.2,13.4C35.6,87.8,28.9,94.5,20.5,94.5z"/>
	<path class="temp-mid-fill" d="M24.4,53.9V19.8h-7.8v34.1H24.4z"/>
</g>
</svg>
