<?xml version="1.0" encoding="utf-8"?>
<!-- Generator: Adobe Illustrator 21.1.0, SVG Export Plug-In . SVG Version: 6.00 Build 0)  -->
<svg version="1.1" id="Layer_1" xmlns="http://www.w3.org/2000/svg" xmlns:xlink="http://www.w3.org/1999/xlink" x="0px" y="0px"
	 viewBox="0 0 24 24" style="enable-background:new 0 0 24 24;" xml:space="preserve">
<g>
	<path d="M23.8,13.2c0,2.3-1.9,4.2-4.2,4.2c-0.5,0-1-0.4-1-1c0-0.5,0.5-1,1-1c1.2,0,2.2-1,2.2-2.2c0-1.1-0.9-2.1-2.1-2.2L18,10.9
		l-0.8-0.8l-0.3-1.6c-0.5-2.3-2.5-4-4.8-4c-1.9,0-3.5,1-4.4,2.7l-0.5,1L6.3,8.8L5.2,8.9c-1.7,0.1-3,1.6-3,3.3c0,1.8,1.5,3.3,3.3,3.3
		c0.6,0,1,0.5,1,1c0,0.6-0.4,1-1,1c-2.9,0-5.3-2.4-5.3-5.3c0-2.7,2-5,4.7-5.3l0.6-0.1l0.3-0.5C7.1,4,9.4,2.5,12,2.5
		c3.3,0,6.2,2.3,6.8,5.6L19,9h0.9C22.1,9.2,23.8,11,23.8,13.2z"/>
	<path d="M11.4,14v2.5c0,0.3,0.4,0.7,0.8,0.7s0.8-0.2,0.8-0.7V14c0-0.3-0.4-0.7-0.8-0.7S11.4,13.7,11.4,14z"/>
	<path d="M12.7,9.5c-0.1-0.2-0.3-0.4-0.6-0.4s-0.4,0.1-0.6,0.4L6,20.3c-0.1,0.2-0.1,0.5,0,0.7c0.1,0.2,0.3,0.4,0.6,0.4h11.2l0,0
		c0.3,0,0.6-0.3,0.6-0.7c0-0.1-0.1-0.3-0.1-0.4L12.7,9.5z M7.7,20l4.5-8.6l4.5,8.6H7.7z"/>
	<circle cx="12.2" cy="18.9" r="1"/>
</g>
</svg>
