<svg viewBox="0 0 508 508" width="507.99999999999994" height="507.99999999999994" xmlns="http://www.w3.org/2000/svg">

 <g>
  <title>background</title>
  <rect fill="none" id="canvas_background" height="402" width="582" y="-1" x="-1"/>
 </g>
 <g>
  <title>Layer 1</title>
  <g id="svg_2">
   <path id="svg_3" fill="#E6E9EE" d="m255.2,363.2c-0.4,0 -0.8,0.4 -1.6,0.4c-0.4,0 -0.8,-0.4 -1.6,-0.4l3.2,0z"/>
   <path id="svg_4" fill="#E6E9EE" d="m458.4,404c-46,62.8 -120.8,104 -204.8,104s-158.4,-40.8 -204.8,-104c36,-38.4 84.8,-58.8 125.6,-69.2c-3.6,29.2 11.6,68.4 12,67.2c15.2,-35.2 66.8,-38.4 66.8,-38.4s51.6,2.8 67.2,38.4c0.4,0.8 15.6,-38 12,-67.2c41.2,10.4 90,30.8 126,69.2z"/>
  </g>
  <path id="svg_5" fill="#ffde93" d="m316.8,308l0,0c0,5.2 -3.2,32.8 -61.6,55.2l-3.2,0c-58.4,-22.4 -61.6,-50 -61.6,-55.2l0,0c0.4,-10.4 2.8,-20.8 7.2,-30.4c16,18 35.2,30 56,30c20.4,0 40,-11.6 56,-30c4.4,9.6 7.2,20 7.2,30.4z"/>
  <path id="svg_6" fill="#F1543F" d="m288.4,372.4l-12.8,25.6l-44,0l-12.8,-25.6c17.6,-7.6 34.8,-8.8 34.8,-8.8s17.6,1.2 34.8,8.8z"/>
  <path id="svg_7" fill="#FF7058" d="m218,505.6c11.6,1.6 23.6,2.4 36,2.4c12,0 24,-0.8 36,-2.4l-14,-107.2l-44,0l-14,107.2z"/>
  <g id="svg_8">
   <path id="svg_9" fill="#FFFFFF" d="m316.8,307.2c0,0 2.8,32 -63.2,56.4c0,0 51.6,2.8 67.2,38.4c0.4,1.6 30.4,-76 -4,-94.8z"/>
   <path id="svg_10" fill="#FFFFFF" d="m190.4,307.2c-34,18.8 -4.4,96 -3.6,94.8c15.2,-35.2 67.2,-38.4 67.2,-38.4c-66.4,-24.4 -63.6,-56.4 -63.6,-56.4z"/>
  </g>
  <path id="svg_11" fill="#efc977" d="m312.8,285.6c-16.8,18 -36.8,29.6 -59.2,29.6s-42.4,-11.6 -59.2,-29.6c0.8,-2.8 2,-5.6 3.2,-8c16,18 35.2,30 56,30s40,-11.6 56,-30c1.2,2.4 2.4,5.2 3.2,8z"/>
  <path id="svg_12" fill="#ffde93" d="m362.8,224.4c-8.4,14 -21.2,22.4 -30.8,20.8c-19.2,35.6 -47.2,62 -78.4,62s-59.2,-26.8 -78.4,-62c-9.6,1.2 -22.4,-6.8 -30.8,-20.8c-10,-16.4 -10.4,-34.4 -0.8,-40.4c2.4,-1.2 4.8,-2 7.6,-1.6c6.4,16.4 15.2,26.4 15.2,26.4c-9.2,-50.8 28.4,-56.4 22,-105.2c0,0 23.6,52.4 91.2,15.6l-5.2,10c94.4,-21.2 62.8,90 62,92.8c10.8,-13.6 17.6,-27.2 21.6,-39.6c1.6,0 3.6,0.8 4.8,1.6c10.4,5.6 10,24 0,40.4z"/>
  <path id="svg_13" fill="#324A5E" d="m308,50.8c7.6,-0.8 20,6 20,6c-34,-38.8 -89.6,-14 -89.6,-14c18.8,-16 35.6,-14.4 35.6,-14.4c-79.6,-12 -93.2,35.6 -93.2,35.6c-3.6,-5.6 -3.6,-13.6 -3.2,-17.6c-5.6,9.6 0.4,28.8 0.4,28.8c-5.6,-14 -25.2,-11.6 -25.2,-11.6c16.8,2.8 19.6,13.2 19.6,13.2c-42,15.6 -34.8,59.2 -34.8,59.2l10,-12c-12.4,47.6 19.2,84.4 19.2,84.4c-9.2,-50.8 28.4,-56.4 22,-105.2c0,0 23.6,52.4 91.2,15.6l-5.2,10c95.6,-21.6 62,93.2 62,93.2c34,-43.2 28.8,-87.6 28.8,-87.6l4,16c10.8,-72 -61.6,-99.6 -61.6,-99.6z"/>
  <g id="svg_14"/>
  <g id="svg_15"/>
  <g id="svg_16"/>
  <g id="svg_17"/>
  <g id="svg_18"/>
  <g id="svg_19"/>
  <g id="svg_20"/>
  <g id="svg_21"/>
  <g id="svg_22"/>
  <g id="svg_23"/>
  <g id="svg_24"/>
  <g id="svg_25"/>
  <g id="svg_26"/>
  <g id="svg_27"/>
  <g id="svg_28"/>
 </g>
</svg>