<svg viewBox="0 0 188.149 188.149" width="188.149" height="188.149" xmlns="http://www.w3.org/2000/svg" xmlns:xlink="http://www.w3.org/1999/xlink">

 <g class="profileIcon">
  <g id="svg_1">
   <g id="svg_2">

    <g id="svg_5" clip-path="url(#SVGID_2_)">
     <path id="svg_6" fill="#A57561" d="m148.572,197.629l0,0.01l-109.065,0l0,-0.01c0,-15.124 6.147,-28.809 16.09,-38.679c0.463,-0.463 0.926,-0.905 1.408,-1.347c1.43,-1.326 2.931,-2.57 4.493,-3.732c1.028,-0.771 2.098,-1.491 3.177,-2.189c1.08,-0.699 2.19,-1.357 3.331,-1.975c0.021,-0.021 0.042,-0.021 0.042,-0.021c0.441,-0.247 0.873,-0.493 1.306,-0.761c1.295,-0.761 2.519,-1.624 3.69,-2.56c4.966,-3.948 8.812,-9.254 11.001,-15.34l0,-0.011c1.306,-3.629 2.016,-7.546 2.016,-11.639l16.121,0.072c0,4.04 0.688,7.927 1.964,11.525c2.169,6.117 5.994,11.433 10.96,15.401c0.339,0.277 0.688,0.545 1.038,0.802c0.483,0.36 0.977,0.71 1.47,1.039c0.37,0.246 0.751,0.493 1.132,0.72c0.421,0.257 0.853,0.514 1.285,0.75c0.041,0.011 0.071,0.021 0.103,0.041c0.03,0.02 0.062,0.041 0.093,0.061c1.265,0.699 2.498,1.439 3.69,2.221c0.401,0.258 0.802,0.524 1.192,0.803c0.515,0.37 1.039,0.74 1.543,1.131l0.021,0c13.293,9.934 21.899,25.788 21.899,43.688z"/>
     <path id="svg_7" fill="#EB6D4A" d="m148.572,197.629l-109.065,0c0,-15.124 6.147,-28.809 16.09,-38.679c0.463,-0.463 0.926,-0.905 1.408,-1.347c1.43,-1.326 2.931,-2.581 4.493,-3.742c1.028,-0.762 2.098,-1.491 3.177,-2.18c1.08,-0.699 2.19,-1.357 3.331,-1.975c0.021,-0.021 0.042,-0.021 0.042,-0.021c0.441,-0.247 0.873,-0.493 1.306,-0.761c1.295,-0.761 2.519,-1.624 3.69,-2.56c5.347,5.469 12.79,8.852 21.046,8.852c8.226,0 15.669,-3.393 21.016,-8.842c0.339,0.277 0.688,0.545 1.038,0.802c0.483,0.36 0.977,0.71 1.47,1.039c0.37,0.246 0.751,0.493 1.132,0.72c0.421,0.267 0.853,0.514 1.285,0.75c0.041,0.011 0.071,0.021 0.103,0.041c0.03,0.011 0.062,0.031 0.093,0.052c1.265,0.699 2.498,1.439 3.69,2.23c0.401,0.258 0.802,0.524 1.192,0.803c0.515,0.37 1.039,0.74 1.543,1.131l0.021,0c13.293,9.933 21.899,25.787 21.899,43.687z"/>
     <path id="svg_8" fill="#A57561" d="m52.183,46.81l0,34.117c0,28.977 25.437,52.466 41.857,52.466c16.421,0 41.858,-23.489 41.858,-52.466l0,-34.117l-83.715,0z"/>
     <path id="svg_9" fill="#141720" d="m52.183,76.823l0,0c2.063,0 3.734,-1.671 3.734,-3.733l0,-23.734l-3.734,0l0,27.467z"/>
     <path id="svg_10" fill="#141720" d="m135.899,76.823l0,0l0,-27.467l-3.733,0l0,23.734c-0.001,2.062 1.67,3.733 3.733,3.733z"/>
     <path id="svg_11" fill="#141720" d="m135.893,48.33c0,4.884 -0.328,6.061 -3.734,5.801c-0.137,-2.367 -17.141,-4.296 -38.111,-4.296c-20.985,0 -37.989,1.929 -38.126,4.296c-3.406,0.26 -3.734,-0.917 -3.734,-5.801c0,-0.479 0.014,-0.984 0.027,-1.519c0.52,-12.052 7.318,-34.582 41.833,-34.582c34.5,0 41.299,22.53 41.818,34.582c0.013,0.535 0.027,1.041 0.027,1.519z"/>
    </g>
    <path id="svg_12" clip-path="url(#SVGID_2_)" fill="#FFFFFF" d="m115.106,146.119c-3.517,10.826 -10.601,21.539 -21.036,30.299c-10.436,-8.76 -17.509,-19.473 -21.025,-30.299c0.052,0.02 0.113,0.041 0.165,0.061c5.531,4.955 12.852,7.979 20.86,7.979c8.009,0 15.319,-3.013 20.851,-7.968c0.061,-0.021 0.123,-0.051 0.185,-0.072z"/>
   </g>
  </g>
  <g id="svg_13"/>
  <g id="svg_14"/>
  <g id="svg_15"/>
  <g id="svg_16"/>
  <g id="svg_17"/>
  <g id="svg_18"/>
  <g id="svg_19"/>
  <g id="svg_20"/>
  <g id="svg_21"/>
  <g id="svg_22"/>
  <g id="svg_23"/>
  <g id="svg_24"/>
  <g id="svg_25"/>
  <g id="svg_26"/>
  <g id="svg_27"/>
 </g>
</svg>