<?xml version="1.0" encoding="utf-8"?>
<!-- Generator: Adobe Illustrator 21.1.0, SVG Export Plug-In . SVG Version: 6.00 Build 0)  -->
<svg version="1.1" id="Layer_1" xmlns="http://www.w3.org/2000/svg" xmlns:xlink="http://www.w3.org/1999/xlink" x="0px" y="0px"
	 viewBox="0 0 78.8 74.1" style="enable-background:new 0 0 78.8 74.1;" xml:space="preserve">
<style type="text/css">
	.st0{opacity:0.5;}
</style>
<path class="st0" d="M76.2,57.5c-1.3-1.1-3.6-2.2-7.8-3c-8.8-1.6-18.6-3.4-19.8-3.7c-0.9-2.3-0.9-4.7-0.8-6.3
	c3.7-2.2,5.4-7.3,6.1-10.2c0.4,0,0.8-0.2,1.2-0.4c1.3-0.9,2.2-1.7,2.7-5.1c0.4-2.8,0-4.5-1.1-5.2c-0.4-0.3-0.9-0.3-1.3-0.2
	c0-0.6,2.3-3.6,2.6-5.3c0.3-2-0.4-4.9-1-6.4c-0.3-0.9-0.7-1.7-0.7-2.5c-0.2-1.9-1.4-2.3-3.4-3c-0.8-0.3-1.8-2.9-3.1-3.5
	c-2.4-1.1-3.1-1-4.3-0.8c-0.8,0.2-1.9,0.4-4.4,0.1c-5.7-0.6-10-2.1-10-2.1l-0.4,1.1c0,0,0.1,0,0.2,0.1c0.2,0.5,0.5,1.3,1.1,2.1
	c-1.2,0-2.7,0.2-4.2,1c-2.4,1.4-2.9,2.5-3.1,3.4c0,0,0,0,0,0c-0.1,0-0.2,0.1-0.3,0.1c-0.9,0.4-2.8,1.4-2.7,3.9
	c0,0.8-0.1,1.7-0.2,2.6c-0.2,2-0.5,4,1,5.9c0.5,0.6,1.7,2.7,1.8,3.3c-0.5-0.1-0.9,0-1.3,0.2C22,24.3,21.6,26,22,28.8
	c0.4,3.3,1.3,4.2,2.7,5.1c0.4,0.3,0.8,0.4,1.2,0.4c0.7,2.8,2.2,7.7,5.8,10c0.1,1.6,0.1,4.1-0.8,6.5c-1.1,0.3-11,2.1-19.8,3.7
	c-4.1,0.8-6.4,1.9-7.7,3c0,0-3.4,5.9-3.4,16.6h78.8C78.8,74.1,78.7,59,76.2,57.5z"/>
</svg>
