<?xml version="1.0" encoding="utf-8"?>
<!-- Generator: Adobe Illustrator 21.1.0, SVG Export Plug-In . SVG Version: 6.00 Build 0)  -->
<svg version="1.1" id="Layer_2" xmlns="http://www.w3.org/2000/svg" xmlns:xlink="http://www.w3.org/1999/xlink" x="0px" y="0px"
	 viewBox="0 0 192 192" style="enable-background:new 0 0 192 192;" xml:space="preserve">
<style type="text/css">
	.st0{fill:currentColor;}
</style>
<path class="st0" d="M66.7,85h-22V63H30v22H8v14.7h22v22h14.7v-22h22V85z M140,92.3c12.2,0,21.9-9.8,21.9-22s-9.8-22-21.9-22
	c-2.3,0-4.6,0.4-6.7,1c4.2,5.9,6.6,13.1,6.6,21s-2.5,15-6.6,21C135.4,92,137.7,92.3,140,92.3z M103.3,92.3c12.2,0,21.9-9.8,21.9-22
	s-9.8-22-21.9-22s-22,9.8-22,22S91.2,92.3,103.3,92.3z M151.9,108.2c6.1,5.4,10.1,12.2,10.1,20.8v14.7h22V129
	C184,117.7,166.6,110.7,151.9,108.2z M103.3,107c-14.7,0-44,7.3-44,22v14.7h88V129C147.3,114.3,118,107,103.3,107z"/>
</svg>
