<?xml version="1.0" encoding="utf-8"?>
<!-- Generator: Adobe Illustrator 21.1.0, SVG Export Plug-In . SVG Version: 6.00 Build 0)  -->
<!DOCTYPE svg PUBLIC "-//W3C//DTD SVG 1.1//EN" "http://www.w3.org/Graphics/SVG/1.1/DTD/svg11.dtd" [
	<!ENTITY st0 "fill:#6CBE45;fill-opacity:0.94;">
]>
<svg version="1.1" id="Layer_2" xmlns="http://www.w3.org/2000/svg" xmlns:xlink="http://www.w3.org/1999/xlink" x="0px" y="0px"
	 viewBox="0 0 192 192" style="enable-background:new 0 0 192 192;" xml:space="preserve">
<path style="&st0;" d="M83.8,127.8l-3.5,3.5l3.5,3.5l3.5-3.6L83.8,127.8z M174.2,96c0,43.2-35,78.2-78.2,78.2v9.8
	c48.6,0,87.9-39.4,87.9-87.9H174.2z M96.1,174.2c-43.2,0-78.2-35-78.2-78.2H8.1c0,48.6,39.4,87.9,87.9,87.9V174.2z M17.9,96
	c0-43.2,35-78.2,78.2-78.2V8.1C47.5,8.1,8.1,47.5,8.1,96H17.9z M96.1,17.9c43.2,0,78.2,35,78.2,78.2h9.8c0-48.6-39.4-87.9-87.9-87.9
	V17.9z M53.5,104.4l26.9,26.9l6.9-6.9L60.4,97.5L53.5,104.4z M87.4,131.2L141.1,75l-7.1-6.8l-53.7,56.2L87.4,131.2z"/>
</svg>
