<?xml version="1.0" encoding="utf-8"?>
<!-- Generator: Adobe Illustrator 21.1.0, SVG Export Plug-In . SVG Version: 6.00 Build 0)  -->
<svg version="1.1" id="Layer_1" xmlns="http://www.w3.org/2000/svg" xmlns:xlink="http://www.w3.org/1999/xlink" x="0px" y="0px"
	 viewBox="0 0 192 192" style="enable-background:new 0 0 192 192;" xml:space="preserve">
<g id="Layer_2">
	<path d="M96,16c44.1,0,80,35.9,80,80s-35.9,80-80,80s-80-35.9-80-80S51.9,16,96,16 M96,8C47.4,8,8,47.4,8,96s39.4,88,88,88
		s88-39.4,88-88S144.6,8,96,8L96,8z"/>
</g>
<path d="M115.4,81.4V130H76.6V81.4H115.4 M108.1,52.3H83.9L79,57.1H62v9.7h68v-9.7h-17L108.1,52.3z M125.1,71.7H66.9V130
	c0,5.3,4.4,9.7,9.7,9.7h38.9c5.3,0,9.7-4.4,9.7-9.7V71.7z"/>
</svg>
