<?xml version="1.0" encoding="utf-8"?>
<!-- Generator: Adobe Illustrator 21.1.0, SVG Export Plug-In . SVG Version: 6.00 Build 0)  -->
<!DOCTYPE svg PUBLIC "-//W3C//DTD SVG 1.1//EN" "http://www.w3.org/Graphics/SVG/1.1/DTD/svg11.dtd" [
	<!ENTITY st0 "fill:#010101;">
]>
<svg version="1.1" id="Layer_2" xmlns="http://www.w3.org/2000/svg" xmlns:xlink="http://www.w3.org/1999/xlink" x="0px" y="0px"
	 viewBox="0 0 192 192" style="enable-background:new 0 0 192 192;" xml:space="preserve">
<g>
	<path style="&st0;" d="M116.7,20C116.7,20,116.7,20,116.7,20L116.7,20c-8.4,1-21,18.9-15.3,36.8c1.9,6.2,2.7,11.9,3.3,17
		c1.3,9.8,2.5,18.3,11.9,18.3s10.6-8.5,11.9-18.3c0.7-5.1,1.5-10.8,3.3-17C137.7,38.9,125.1,21,116.7,20z M124.7,73
		c-1.4,10.3-2.2,14.4-8,14.4s-6.6-4.2-8-14.4c-0.5-3.4-1-7.3-1.9-11.5c1.1-12.3,5.9-19.9,9.9-19.9c4,0.1,8.8,7.6,9.9,19.9
		C125.7,65.8,125.2,69.7,124.7,73z M129,52c-2.1-7.8-5.8-13.3-10.2-14.6v-3.2c0-1.3-0.9-2.3-2-2.3l0,0c-1.1,0-2,1-2,2.3v3.2
		c-4.5,1.2-8.3,6.7-10.5,14.7c-2.6-10.8,5.1-25.1,12.3-27.5c0,0,0,0,0,0c0,0,0,0,0,0C124,27,131.7,41.3,129,52z"/>
	<path style="&st0;" d="M154.8,20C154.8,20,154.8,20,154.8,20L154.8,20c-8.4,1-21,18.9-15.3,36.8c1.9,6.2,2.7,11.9,3.3,17
		c1.3,9.8,2.5,18.3,11.9,18.3s10.6-8.5,11.9-18.3c0.7-5.1,1.5-10.8,3.3-17C175.9,38.9,163.2,21,154.8,20z M162.8,73
		c-1.4,10.3-2.2,14.4-8,14.4s-6.6-4.2-8-14.4c-0.5-3.4-1-7.3-1.9-11.5c1.1-12.3,5.9-19.9,9.9-19.9c4,0.1,8.8,7.6,9.9,19.9
		C163.8,65.8,163.3,69.7,162.8,73z M167.1,52c-2.1-7.8-5.8-13.3-10.2-14.6v-3.2c0-1.3-0.9-2.3-2-2.3l0,0c-1.1,0-2,1-2,2.3v3.2
		c-4.5,1.2-8.3,6.7-10.5,14.7c-2.6-10.8,5.1-25.1,12.3-27.5c0,0,0,0,0,0c0,0,0,0,0,0C162,27,169.8,41.3,167.1,52z"/>
</g>
<path style="&st0;" d="M53.3,150.9c-6.5-8.3-20.6-12.5-28.9-1.7v-31.6c0-7.5,6-13.6,13.4-13.6c1.1,0,2-0.9,2-2c0-1.1-0.9-2-2-2
	c-9.6,0-17.4,7.9-17.4,17.6v44.8c-0.1,2.1,6.3,8.6,14.5,9.8h0c8.1,1.3,17.7-3.8,18.7-16.7c1.3-1.8,3.9-1.8,5.2,0
	c1,12.9,10.6,17.9,18.7,16.7h0c7.3-0.8,14.7-7.6,14.5-9.8v-44.8c0-9.7-7.8-17.6-17.4-17.6c-1.1,0-2,0.9-2,2s0.9,2,2,2
	c7.4,0,13.4,6.1,13.4,13.6v31.6c-8.3-10.8-22.4-6.6-28.9,1.7C57.2,150,55.3,150,53.3,150.9z M35.6,168.3c-4.6-0.8-8.7-3.1-11-6.3
	l0.9-5.2c3.4-14.2,19.1-11.3,24.6-3.7C49.3,159.2,47.1,169.6,35.6,168.3z M76.9,168.3c-11.6,1.3-13.8-9.1-14.4-15.1
	c5.6-7.6,21.2-10.5,24.6,3.7L88,162C85.6,165.2,81.6,167.5,76.9,168.3z"/>
<g>
	<path style="&st0;" d="M35.3,23.2l1.6,5.6H22.6c-1.4,0-2.5,1.1-2.5,2.5v58c0,1.4,1.1,2.5,2.5,2.5h67c1.4,0,2.5-1.1,2.5-2.5v-58
		c0-1.4-1.1-2.5-2.5-2.5H73.7c0,0,1.6-5.7,1.6-5.7c0.6-2.8-2.4-3.1-2.4-3.1H37.7C37.7,20,34.9,20.2,35.3,23.2z M66.9,25L55.3,36.6
		L43.7,25H66.9z M67.9,31l-3.4,11.7l-5.2-3.1l6.6-6.6L67.9,31z M51.3,39.6l-5.2,3.1L42.7,31L51.3,39.6z M87,86.9H58.5V49.8
		c0-1.4-1.1-2.5-2.5-2.5c-1.4,0-2.5,1.1-2.5,2.5v37.1H25V33.8h13.3l3.8,13.4c0.2,0.7,0.7,1.3,1.5,1.6c0.3,0.1,0.6,0.2,0.9,0.2
		c0.4,0,0.9-0.1,1.3-0.3l9.5-5.6l9.5,5.6c0.4,0.2,0.8,0.3,1.3,0.3c0.3,0,0.6-0.1,0.9-0.2c0.7-0.3,1.3-0.9,1.5-1.6l3.8-13.4H87
		C87,33.8,87,86.9,87,86.9z"/>
	<path style="&st0;" d="M62.2,57.5V72c0,1.4,1.1,2.5,2.5,2.5h17.7c1.4,0,2.5-1.1,2.5-2.5V57.5c0-1.4-1.1-2.5-2.5-2.5H64.7
		C63.3,55,62.2,56.1,62.2,57.5z M67.2,59.9H80v9.6H67.2V59.9z"/>
</g>
<path style="&st0;" d="M144.1,165.9c2.3-10.8,13.2-18.7,25.9-18.7c1.1,0,2-0.8,2-1.7v-15.7c0-1-0.9-1.7-2-1.7h-68
	c-1.1,0-2,0.8-2,1.7v15.7c0,1,0.9,1.7,2,1.7c12.7,0,23.5,7.8,25.9,18.6c0.9,3.8,4.5,5.9,8.2,5.9
	C139.7,171.7,143.4,169.3,144.1,165.9z M104,143.8v-12.3h12.6c5.8,3.8,7.2,13.3,7.2,20.3C118.7,147.2,111.7,144.2,104,143.8z
	 M131.8,165c-0.8-3.4-2.2-6.4-4.2-9.2c0.7-6.7,0.1-17.9-5.5-24.4H150c-5.5,6.5-6.1,17.6-5.5,24.3c-2.1,2.8-3.6,6-4.4,9.5
	c-0.1,0.3-0.7,2.8-4.2,3C133.9,168.2,131.9,166.7,131.8,165z M168,143.8c-7.6,0.4-14.6,3.3-19.7,7.8c-0.1-6.9,1.4-16.4,7.2-20.2H168
	L168,143.8L168,143.8z"/>
<g>
	<g>
		<path style="&st0;" d="M141.2,109.1l-3.4,0l0-1.9c0-0.5-0.3-0.8-0.8-0.8c-0.4,0-0.7,0.4-0.7,0.8l0,2.7c0,0.5,0.3,0.8,0.8,0.8
			l4.1,0c0.4,0,0.7-0.4,0.7-0.8C142,109.5,141.6,109.1,141.2,109.1z"/>
		<path d="M141.2,110.3L141.2,110.3C141.2,110.3,141.2,110.3,141.2,110.3L141.2,110.3z M136.8,107.3L136.8,107.3L136.8,107.3z"/>
	</g>
	<path d="M132.2,120c-1.7,0-3.1-1.1-3.8-2.8l-26.8-0.6c-1-0.1-1.6-0.9-1.6-1.9l0-9.1c0-1,0.7-1.8,1.6-1.9l26.9-0.7
		c0.6-1.7,2.1-2.9,3.8-2.9l9.7,0c0,0,0,0,0,0c1.7,0,3.1,1.1,3.8,2.8l24.6,0.6c1,0.1,1.6,0.9,1.6,1.9l0,9.1c0,1-0.7,1.8-1.6,1.9
		l-24.7,0.7c-0.6,1.7-2.1,2.9-3.8,2.9L132.2,120C132.3,120,132.2,120,132.2,120z M141.9,103.9C141.9,103.9,141.9,103.9,141.9,103.9
		l-9.7,0c-0.3,0-0.6,0.3-0.6,0.6l0,10.9c0,0.2,0.1,0.3,0.2,0.5c0.1,0.1,0.3,0.2,0.4,0.2c0,0,0,0,0,0l9.7,0c0.3,0,0.6-0.3,0.6-0.6
		l0-10.9c0-0.2-0.1-0.3-0.2-0.5C142.2,104,142.1,103.9,141.9,103.9z M103.5,112.7l24.7,0.5l0-6.4l-24.7,0.6L103.5,112.7z M146,106.7
		l0,6.4l22.5-0.6l0-5.4L146,106.7z"/>
</g>
</svg>
