<?xml version="1.0" encoding="utf-8"?>
<!-- Generator: Adobe Illustrator 21.1.0, SVG Export Plug-In . SVG Version: 6.00 Build 0)  -->
<svg version="1.1" id="Layer_2" xmlns="http://www.w3.org/2000/svg" xmlns:xlink="http://www.w3.org/1999/xlink" x="0px" y="0px"
	 viewBox="0 0 192 192" style="enable-background:new 0 0 192 192;" xml:space="preserve">
<g>
	<g>
	</g>
</g>
<text transform="matrix(1 0 0 1 624.6929 384)" style="font-family:'MyriadPro-Regular'; font-size:12px;">t-shirt-push</text>
<path d="M160.4,25.1L149.2,6.7c-0.1-0.1-0.1-0.4-0.4-0.4c0-0.1-0.1-0.1-0.1-0.4c-0.4-0.4-0.5-0.7-1.1-0.8c-0.4-0.1-0.9-0.5-1.2-0.5
	c-0.1,0-0.4,0-0.4-0.1c-0.4-0.1-0.5-0.1-0.7-0.1h-0.5c-0.1,0-0.1,0-0.1,0H73c-0.1,0-0.4,0.1-0.5,0.1s-0.4,0-0.4,0.1
	c-0.4,0.1-0.9,0.4-1.2,0.5c-0.5,0.1-0.9,0.5-1.1,0.8C69.7,6,69.7,6,69.7,6.3c-0.1,0.1-0.1,0.4-0.4,0.4L58.1,25
	c-19,1.4-33.7,15.7-33.7,32.9v99.6c0,2.6,2.4,4.9,5.1,4.9h74v-9.7H34.9V57.9c0-11.7,10-21.5,22.9-22.9l15.4,30.3
	c0.7,1.3,2,2.4,3.4,2.6c0.4,0.1,0.9,0.1,1.2,0.1c1.1,0,2.1-0.4,3.2-1.1l22.8-15.9v51.5h10.7V51.1L137.3,67c0.9,0.7,2,1.1,3.2,1.1
	c0.4,0,0.9,0,1.2-0.1c1.6-0.4,2.9-1.3,3.4-2.6l15.4-30.2c12.6,1.7,22.3,11.3,22.3,22.9v44.6H193V57.9
	C193.1,40.9,178.7,26.8,160.4,25.1z M80,55.4L66.8,30l8-12.9l26.3,23.6L80,55.4z M109.1,34.2L86.7,14.1h44.8L109.1,34.2z
	 M138.3,55.4l-21.2-14.7l26.3-23.6l8,12.9L138.3,55.4z"/>
<path d="M103.6,177v9.7H5.1c-2.8,0-5.1-2.2-5.1-4.9V87.6c0-2.9,2.4-5.3,5.3-5.3s5.3,2.4,5.3,5.3V177H103.6z"/>
<path d="M139.7,169l-17.5-17.5l5.7-5.7c3.2-3.2,5.7-5.7,5.7-5.7s3.7,3.4,8,7.7l7.7,7.7v-16v-16.6h8h8v16.3v16.3l7.4-7.4l7.4-7.4
	l5.7,5.7l5.7,5.7l-12.6,12.6c-6.9,6.9-14.9,14.9-17.5,17.5l-4.6,4.6L139.7,169L139.7,169z"/>
</svg>
