<?xml version="1.0" encoding="utf-8"?>
<!-- Generator: Adobe Illustrator 21.1.0, SVG Export Plug-In . SVG Version: 6.00 Build 0)  -->
<svg version="1.1" id="Layer_2" xmlns="http://www.w3.org/2000/svg" xmlns:xlink="http://www.w3.org/1999/xlink" x="0px" y="0px"
	 viewBox="0 0 192 192" style="enable-background:new 0 0 192 192;" xml:space="preserve">
<g>
	<g>
		<path d="M159.8,25.9L148.7,7.7c-0.1-0.1-0.1-0.4-0.4-0.4c0-0.1-0.1-0.1-0.1-0.4c-0.4-0.4-0.5-0.7-1-0.8l0,0
			c-0.4-0.1-0.9-0.5-1.2-0.5c-0.1,0-0.4,0-0.4-0.1c-0.4-0.1-0.5-0.1-0.7-0.1c-0.1,0-0.4,0-0.5,0c-0.1,0-0.1,0-0.1,0H74.1H74
			c-0.1,0-0.4,0-0.5,0s-0.4,0.1-0.5,0.1s-0.4,0-0.4,0.1c-0.4,0.1-0.9,0.4-1.2,0.5l0,0c-0.5,0.1-0.9,0.5-1,0.8
			C70.2,7,70.2,7,70.2,7.3c-0.1,0.1-0.1,0.4-0.4,0.4l-11,18.1C40,27.2,25.5,41.2,25.5,58.2v98.3c0,2.6,2.3,4.8,5.1,4.8h156.3
			c2.9,0,5.1-2.2,5.1-4.8V58.2C192,41.5,177.8,27.6,159.8,25.9z M143,17.9l7.9,12.7l-13,25.1L117,41.2L143,17.9z M131.2,14.9
			l-22.1,19.9L87,14.9C87,14.9,131.2,14.9,131.2,14.9z M75.3,17.9l26,23.3L80.3,55.8l-13-25.1L75.3,17.9z M35.9,58.2
			c0-11.6,9.9-21.2,22.6-22.6l15.2,29.9c0.7,1.3,2,2.3,3.4,2.6c0.4,0.1,0.9,0.1,1.2,0.1c1,0,2.1-0.4,3.1-1l22.5-15.7v100.2h-68V58.2
			z M181.7,151.7h-67.3V51.5l22.5,15.7c0.9,0.6,1.9,1,3.1,1c0.4,0,0.9,0,1.2-0.1c1.6-0.4,2.9-1.3,3.4-2.6l15.2-29.8
			c12.5,1.7,22,11.2,22,22.6L181.7,151.7L181.7,151.7z"/>
	</g>
	<path d="M10.5,177.1V88.8c0-2.9-2.3-5.2-5.2-5.2l0,0c-2.9,0-5.2,2.3-5.2,5.2v93.1c0,2.6,2.3,4.8,5.1,4.8h146.4
		c2.6,0,4.8-2.2,4.8-4.8l0,0c0-2.6-2.2-4.8-4.8-4.8H10.5z"/>
</g>
</svg>
