<?xml version="1.0" encoding="utf-8"?>
<!-- Generator: Adobe Illustrator 21.1.0, SVG Export Plug-In . SVG Version: 6.00 Build 0)  -->
<svg version="1.1" id="Layer_2" xmlns="http://www.w3.org/2000/svg" xmlns:xlink="http://www.w3.org/1999/xlink" x="0px" y="0px"
	 viewBox="0 0 192 192" style="enable-background:new 0 0 192 192;" xml:space="preserve">
<style type="text/css">
	.st0{fill:currentColor;}
</style>
<g>
	<path class="st0" d="M152.2,141.8c0,6.4,0,10.3,0,10.3h-51.8V152H39.7V55.8h10.5v-9.1H35.2c-2.5,0-4.5,2-4.5,4.5v105.3
		c0,2.5,2,4.5,4.5,4.5h121.5c2.5,0,4.5-2,4.5-4.5v-14.9H152.2z"/>
</g>
<g>
	<path class="st0" d="M121.5,172.6c0,6.4,0,10.3,0,10.3H69.8v-0.1H8.9V86.7h10.5v-9.1H4.5c-2.5,0-4.5,2-4.5,4.5v105.3
		c0,2.5,2,4.5,4.5,4.5H126c2.5,0,4.5-2,4.5-4.5v-14.9H121.5z"/>
</g>
<g>
	<path class="st0" d="M89.1,5.7L92.1,16H66c-2.5,0-4.5,2-4.5,4.5v105.3c0,2.5,2,4.5,4.5,4.5h121.5c2.5,0,4.5-2,4.5-4.5V20.5
		c0-2.5-2-4.5-4.5-4.5h-28.8l2.9-10.4c1.1-5.1-4.3-5.6-4.3-5.6H93.5C93.5,0,88.4,0.4,89.1,5.7z M146.4,9.1l-21.1,21.1l-21-21.1
		H146.4z M148.2,19.9l-6,21.2l-9.6-5.6l11.9-11.9L148.2,19.9z M118,35.6l-9.5,5.6l-6-21.2L118,35.6z M182.9,121.3h-51.8V53.9
		c0-2.5-2-4.5-4.5-4.5s-4.5,2-4.5,4.5v67.3H70.4V25h24.2l7,24.3c0.4,1.3,1.4,2.4,2.7,2.9c0.5,0.2,1.1,0.3,1.6,0.3
		c0.8,0,1.6-0.2,2.3-0.6l17.1-10.2l17.1,10.2c0.6,0.4,1.5,0.6,2.3,0.6c0.5,0,1.1-0.1,1.6-0.3c1.3-0.5,2.3-1.6,2.7-2.9l7-24.3h26.8
		C182.9,25,182.9,121.3,182.9,121.3z"/>
</g>
</svg>
