<?xml version="1.0" encoding="utf-8"?>
<!-- Generator: Adobe Illustrator 21.1.0, SVG Export Plug-In . SVG Version: 6.00 Build 0)  -->
<svg version="1.1" id="Layer_1" xmlns="http://www.w3.org/2000/svg" xmlns:xlink="http://www.w3.org/1999/xlink" x="0px" y="0px"
	 viewBox="0 0 399.8 437" style="enable-background:new 0 0 399.8 437;" xml:space="preserve">
<style type="text/css">
	.st0{fill:#FFFFFF;}
</style>
<g>
	<g>
		<path d="M69.8,0l272.5,0c7.1,0,13.8,4.4,14.9,9.9l42.3,211.9c1.8,8.9-4.2,16.1-13.5,16.1l-352.7,0c-9.2,0-15.4-7.3-13.9-16.1
			l7-41.2l119-41.9l19.4-6.8l-14.1-12.6l-17.4-15.5l18.8-15l14.3-11.5l-17.7-6L50.5,37.9l4.7-28C56.2,4.4,62.7,0,69.8,0z"/>
		<g>
			<polygon points="42.5,85.1 94.5,103.8 36.1,123.2 2.7,134.3 14.7,75.1 			"/>
			<g>
				<polygon points="42.3,46.3 48.7,48.5 143.5,81 124.6,96 119.3,100.1 112.5,97.7 108.2,96.2 44.5,73.6 40.9,72.4 16.9,63.9 				
					"/>
				<path class="st0" d="M107.9,99.3l4.6-1.5l-4.3-1.5L107.9,99.3z"/>
			</g>
			<g>
				<polygon points="118.7,107.4 140.9,127.6 104,140.5 83.9,147.5 28.7,166.6 20.5,169.5 0,147.5 0,147.4 33.9,136 106.8,111.4 
									"/>
				<path class="st0" d="M0,147.5L0,147.5L0,147.5L0,147.5z"/>
			</g>
		</g>
	</g>
	<path d="M379.8,302.5H37.9c-11,0-20-9-20-20v0c0-11,9-20,20-20h341.9c11,0,20,9,20,20v0C399.8,293.5,390.8,302.5,379.8,302.5z"/>
	<path d="M399.8,360.8v42.5c0,18.7-15.1,33.8-33.8,33.8H30.4c-6.9,0-12.5-5.6-12.5-12.5V407c0-6.9,5.6-12.5,12.5-12.5h315.5
		c6.9,0,12.5-5.6,12.5-12.5l0,0c0-6.9-5.6-12.5-12.5-12.5H30.4c-6.9,0-12.5-5.6-12.5-12.5v-17.5c0-6.9,5.6-12.5,12.5-12.5H366
		C384.6,327,399.8,342.1,399.8,360.8z"/>
</g>
</svg>
