<?xml version="1.0" encoding="utf-8"?>
<!-- Generator: Adobe Illustrator 21.1.0, SVG Export Plug-In . SVG Version: 6.00 Build 0)  -->
<!DOCTYPE svg PUBLIC "-//W3C//DTD SVG 1.1//EN" "http://www.w3.org/Graphics/SVG/1.1/DTD/svg11.dtd" [
	<!ENTITY st0 "fill:#010101;">
]>
<svg version="1.1" id="Layer_2" xmlns="http://www.w3.org/2000/svg" xmlns:xlink="http://www.w3.org/1999/xlink" x="0px" y="0px"
	 viewBox="0 0 192 192" style="enable-background:new 0 0 192 192;" xml:space="preserve">
<g>
	<path style="&st0;" d="M76.7,25.3l2.7,9.5H55.2c-2.3,0-4.2,1.9-4.2,4.2v97.7c0,2.3,1.9,4.2,4.2,4.2h112.7c2.3,0,4.2-1.9,4.2-4.2V39
		c0-2.3-1.9-4.2-4.2-4.2h-26.7c0,0,2.7-9.6,2.7-9.6c1-4.7-4-5.2-4-5.2H80.7C80.7,20,76,20.4,76.7,25.3z M129.8,28.4l-19.6,19.6
		L90.7,28.4H129.8z M131.5,38.5l-5.6,19.7L117,53l11-11L131.5,38.5z M103.5,53l-8.8,5.2l-5.6-19.7L103.5,53z M163.7,132.5h-48V70
		c0-2.3-1.9-4.2-4.2-4.2c-2.3,0-4.2,1.9-4.2,4.2v62.4h-48V43.2h22.4l6.5,22.5c0.4,1.2,1.3,2.2,2.5,2.7c0.5,0.2,1,0.3,1.5,0.3
		c0.7,0,1.5-0.2,2.1-0.6l15.9-9.5l15.9,9.5c0.6,0.4,1.4,0.6,2.1,0.6c0.5,0,1-0.1,1.5-0.3c1.2-0.5,2.1-1.5,2.5-2.7l6.5-22.5h24.9
		C163.7,43.2,163.7,132.5,163.7,132.5z"/>
</g>
<polygon points="149,155 37,155 37,59 43,59 43,149 149,149 "/>
<polygon points="133,171 21,171 21,75 27,75 27,165 133,165 "/>
</svg>
