<?xml version="1.0" encoding="utf-8"?>
<!-- Generator: Adobe Illustrator 21.1.0, SVG Export Plug-In . SVG Version: 6.00 Build 0)  -->
<svg version="1.1" id="Layer_2" xmlns="http://www.w3.org/2000/svg" xmlns:xlink="http://www.w3.org/1999/xlink" x="0px" y="0px"
	 viewBox="0 0 192 192" enable-background="new 0 0 192 192" xml:space="preserve">
<g>
	<g>
		<path fill="currentColor" d="M135.3,31.8l-8.5-14c-0.1-0.1-0.1-0.3-0.3-0.3c0-0.1-0.1-0.1-0.1-0.3c-0.3-0.3-0.4-0.5-0.8-0.6l0,0
			c-0.3-0.1-0.7-0.4-0.9-0.4c-0.1,0-0.3,0-0.3-0.1c-0.3-0.1-0.4-0.1-0.5-0.1c-0.1,0-0.3,0-0.4,0s-0.1,0-0.1,0h-54h-0.1
			c-0.1,0-0.3,0-0.4,0c-0.1,0-0.3,0.1-0.4,0.1c-0.1,0-0.3,0-0.3,0.1c-0.3,0.1-0.7,0.3-0.9,0.4l0,0c-0.4,0.1-0.7,0.4-0.8,0.6
			c-0.1,0.1-0.1,0.1-0.1,0.3c-0.1,0.1-0.1,0.3-0.3,0.3l-8.5,13.9C43.2,32.8,32,43.6,32,56.7v75.6c0,2,1.8,3.7,3.9,3.7h120.2
			c2.2,0,3.9-1.7,3.9-3.7V56.7C160.1,43.8,149.2,33.1,135.3,31.8z M122.4,25.7l6.1,9.8l-10,19.3l-16.1-11.2L122.4,25.7z M113.3,23.4
			l-17,15.3l-17-15.3C79.3,23.4,113.3,23.4,113.3,23.4z M70.3,25.7l20,17.9L74.2,54.8l-10-19.3L70.3,25.7z M40,56.7
			c0-8.9,7.6-16.3,17.4-17.4l11.7,23c0.5,1,1.5,1.8,2.6,2c0.3,0.1,0.7,0.1,0.9,0.1c0.8,0,1.6-0.3,2.4-0.8l17.3-12.1v77.1H40V56.7z
			 M152.2,128.6h-51.8V51.5l17.3,12.1c0.7,0.5,1.5,0.8,2.4,0.8c0.3,0,0.7,0,0.9-0.1c1.2-0.3,2.2-1,2.6-2l11.7-22.9
			c9.6,1.3,16.9,8.6,16.9,17.4V128.6z"/>
	</g>
	<path fill="currentColor" d="M157.3,156H34.7c-1.7,0-3-1.3-3-3v-2c0-1.7,1.3-3,3-3h122.5c1.7,0,3,1.3,3,3v2
		C160.2,154.7,158.9,156,157.3,156z"/>
	<path fill="currentColor" d="M157.3,176H34.7c-1.7,0-3-1.3-3-3v-2c0-1.7,1.3-3,3-3h122.5c1.7,0,3,1.3,3,3v2
		C160.2,174.7,158.9,176,157.3,176z"/>
</g>
</svg>
