<?xml version="1.0" encoding="utf-8"?>
<!-- Generator: Adobe Illustrator 21.1.0, SVG Export Plug-In . SVG Version: 6.00 Build 0)  -->
<svg version="1.1" id="Layer_1" xmlns="http://www.w3.org/2000/svg" xmlns:xlink="http://www.w3.org/1999/xlink" x="0px" y="0px"
	 viewBox="0 0 24 24" style="enable-background:new 0 0 24 24;" xml:space="preserve">
<style type="text/css">
	.st0{fill:none;}
</style>
<path class="st0" d="M0,0h24v24H0V0z"/>
<g>
	<path d="M15.1,10h-12v2h12V10z M15.1,6h-12v2h12V6z M3.1,16h8v-2h-8V16z M19.9,16.3c0-0.1,0-0.3,0-0.4s0-0.3,0-0.4l0.8-0.7
		c0.1-0.1,0.1-0.2,0-0.3L20,13.3c0-0.1-0.2-0.1-0.2-0.1l-1,0.4c-0.2-0.2-0.4-0.3-0.7-0.4l-0.2-1c0-0.1-0.1-0.2-0.2-0.2h-1.6
		c-0.1,0-0.2,0.1-0.2,0.2l-0.2,1c-0.2,0.1-0.5,0.2-0.7,0.4l-1-0.4c-0.1,0-0.2,0-0.2,0.1l-0.8,1.4c0,0.1,0,0.2,0,0.3l0.8,0.7
		c0,0.1,0,0.3,0,0.4s0,0.3,0,0.4L13.2,17c-0.1,0.1-0.1,0.2,0,0.3l0.8,1.4c0,0.1,0.2,0.1,0.2,0.1l1-0.4c0.2,0.2,0.4,0.3,0.7,0.4
		l0.2,1c0,0.1,0.1,0.2,0.2,0.2h1.6c0.1,0,0.2-0.1,0.2-0.2l0.2-1c0.2-0.1,0.5-0.2,0.7-0.4l1,0.4c0.1,0,0.2,0,0.2-0.1l0.8-1.4
		c0-0.1,0-0.2,0-0.3L19.9,16.3z M17,17.1c-0.7,0-1.2-0.5-1.2-1.2c0-0.7,0.5-1.2,1.2-1.2s1.2,0.5,1.2,1.2
		C18.2,16.6,17.7,17.1,17,17.1z"/>
</g>
</svg>
