<?xml version="1.0" encoding="utf-8"?>
<!-- Generator: Adobe Illustrator 21.1.0, SVG Export Plug-In . SVG Version: 6.00 Build 0)  -->
<!DOCTYPE svg PUBLIC "-//W3C//DTD SVG 1.1//EN" "http://www.w3.org/Graphics/SVG/1.1/DTD/svg11.dtd">
<svg version="1.1" id="Layer_2" xmlns="http://www.w3.org/2000/svg" xmlns:xlink="http://www.w3.org/1999/xlink" x="0px" y="0px"
	 viewBox="0 0 192 192" style="enable-background:new 0 0 192 192;" xml:space="preserve">
<path d="M55.9,86c2.3,0,4.1,1.9,4.1,4.1v11.7c0,2.3-1.9,4.1-4.1,4.1H44.1c-2.3,0-4.1-1.9-4.1-4.1V90.1c0-2.3,1.9-4.1,4.1-4.1H55.9
	 M55.9,78H44.1C37.4,78,32,83.4,32,90.1v11.7c0,6.7,5.4,12.1,12.1,12.1h11.7c6.7,0,12.1-5.4,12.1-12.1V90.1C68,83.4,62.6,78,55.9,78
	L55.9,78z"/>
<path d="M55.9,132c2.3,0,4.1,1.9,4.1,4.1v11.7c0,2.3-1.9,4.1-4.1,4.1H44.1c-2.3,0-4.1-1.9-4.1-4.1v-11.7c0-2.3,1.9-4.1,4.1-4.1H55.9
	 M55.9,124H44.1c-6.7,0-12.1,5.4-12.1,12.1v11.7c0,6.7,5.4,12.1,12.1,12.1h11.7c6.7,0,12.1-5.4,12.1-12.1v-11.7
	C68,129.4,62.6,124,55.9,124L55.9,124z"/>
<rect x="80.5" y="44" width="79.5" height="11.8"/>
<rect x="80" y="90" width="80" height="12"/>
<rect x="80.5" y="136" width="79.5" height="12"/>
<g>
	<polygon points="75.5,36.2 61.2,46.9 53.2,52.8 42.8,60.6 29.5,44.8 34,40.9 43.7,52.4 53,45.5 59.5,40.7 72,31.4 	"/>
</g>
</svg>
