<?xml version="1.0" encoding="utf-8"?>
<!-- Generator: Adobe Illustrator 21.1.0, SVG Export Plug-In . SVG Version: 6.00 Build 0)  -->
<svg version="1.1" 
	xmlns="http://www.w3.org/2000/svg" 
	xmlns:xlink="http://www.w3.org/1999/xlink" x="0px" y="0px" viewBox="0 0 192 192" style="enable-background:new 0 0 192 192;" xml:space="preserve">

	<g id="Layer_10">
		<path d="M72,86v10h10l27.3-27.4l-10-10L72,86z M112.9,48.8c-1-1-2.7-1-3.8,0l-4.9,4.9l10,10l4.9-4.9c1-1,1-2.7,0-3.8L112.9,48.8z" />
	</g>
	<g id="Layer_11">
		<path d="M96,16c-31,0-56,25-56,56c0,42,56,104,56,104s56-62,56-104C152,41,127,16,96,16z M56,72c0-22.1,17.9-40,40-40
		s40,17.9,40,40c0,23-23,57.5-40,79C79.4,129.7,56,94.8,56,72z"/>
	</g>
</svg>
