<svg viewBox="0 0 24 24" version="1.1" id="Layer_2" 
    xmlns="http://www.w3.org/2000/svg" x="0px" y="0px" style="enable-background:new 0 0 24 24;" xml:space="preserve">
    <g>
        <path d="M12 1C7.59 1 4 4.59 4 9C4 14.57 10.96 22.34 11.26 22.67L12 23.49L12.74 22.67C13.04 22.34 20 14.57 20 9C20 4.59 16.41 1 12 1ZM12 20.47C9.82 17.86 6 12.54 6 9C6 5.69 8.69 3 12 3C15.31 3 18 5.69 18 9C18 12.83 13.75 18.36 12 20.47ZM8.51 11.05V12.49H9.95L13.87 8.56L12.44 7.13L8.51 11.05ZM14.39 5.71C14.24 5.56 14 5.56 13.85 5.71L13.15 6.41L14.59 7.85L15.29 7.15C15.44 7 15.44 6.76 15.29 6.61L14.39 5.71Z" fill="currentColor"/>
    </g>
</svg>
