<?xml version="1.0" encoding="utf-8"?>
<!-- Generator: Adobe Illustrator 21.1.0, SVG Export Plug-In . SVG Version: 6.00 Build 0)  -->
<svg version="1.1" id="Layer_2" xmlns="http://www.w3.org/2000/svg" xmlns:xlink="http://www.w3.org/1999/xlink" x="0px" y="0px"
	 viewBox="0 0 192 192" style="enable-background:new 0 0 192 192;" xml:space="preserve">
<g>
	<path d="M55.5,55.9h8.3c3.7,0,6.8-3.1,6.8-6.8c0-3.7-3.1-6.8-6.8-6.8h-8.3c-13.1,0-23.6,10.6-23.6,23.6v70.4
		c0,13.1,10.6,23.6,23.6,23.6h70.4c13.1,0,23.6-10.6,23.6-23.6v-8.3c0-3.7-3.1-6.8-6.8-6.8s-6.8,3.1-6.8,6.8l0,0v8.3
		c0,5.6-4.5,10.1-10.1,10.1H55.5c-5.6,0-10.1-4.5-10.1-10.1V66C45.4,60.4,50,55.9,55.5,55.9z"/>
	<path d="M88.4,103.4c2.7,2.6,7,2.6,9.5,0l60.1-60.2v41.6c0,3.7,3.1,6.8,6.8,6.8c3.7,0,6.8-3.1,6.8-6.8V26.9c0-0.8-0.2-1.8-0.6-2.6
		c-0.4-0.8-0.8-1.6-1.5-2.2s-1.4-1.1-2.2-1.5c-0.8-0.4-1.7-0.6-2.6-0.6h-57.9c-3.7,0-6.8,3.1-6.8,6.8s3.1,6.8,6.8,6.8l0,0h41.6
		L88.3,93.6C85.7,96.4,85.7,100.7,88.4,103.4z"/>
</g>
</svg>
