<?xml version="1.0" encoding="utf-8"?>
<!-- Generator: Adobe Illustrator 21.1.0, SVG Export Plug-In . SVG Version: 6.00 Build 0)  -->
<svg version="1.1" id="Layer_1" xmlns="http://www.w3.org/2000/svg" xmlns:xlink="http://www.w3.org/1999/xlink" x="0px" y="0px"
	 viewBox="0 0 70.2 56.4" style="enable-background:new 0 0 70.2 56.4;" xml:space="preserve">
<g id="Layer_1_1_">
	<g>
		<g>
			<rect x="33.8" y="35.8" width="13" height="3.9"/>
			<polygon points="58.1,51.9 58.1,40.5 54.2,40.5 54.2,45.2 45,36 42.3,38.8 51.4,48 46.8,48 46.8,50.2 46.8,51.9 			"/>
			<polygon points="45,39.4 54.2,30.3 54.2,34.9 58.1,34.9 58.1,23.6 58.1,23.6 46.8,23.6 46.8,25.3 46.8,27.5 51.4,27.5 42.3,36.7 
							"/>
		</g>
	</g>
	<path d="M69.5,10.2l-2.8,15.3L63,24.8l2.3-12.3L46.2,5c-0.2,0-0.3-0.1-0.5-0.1c-1.6,3.7-5.6,6.2-10.2,6.2c-4.7,0-8.8-2.7-10.3-6.4
		c-0.4,0.1-0.8,0.2-1.2,0.3c-4.2,1.7-8.5,3.4-12.7,5.1c-2.1,0.8-4.2,1.7-6.3,2.5l2,10.5l11.7-2.5v31.9h22v3.6H14.8v-31L3.9,27.4
		L0.7,10.4l1.4-0.6c2.6-1,5.2-2,7.7-3.1c4.3-1.7,8.5-3.4,12.8-5.1l0.2-0.1C23.8,1.2,24.9,1,26,0.7l1.9-0.4l0.3,2
		c0.4,3,3.5,5.2,7.2,5.2c3.6,0,6.7-2.2,7.2-5.1L43,0.5l1.9,0.4c0.5,0.1,1,0.3,1.5,0.4c0.3,0.1,0.6,0.2,0.9,0.3l0.2,0.1L69.5,10.2z"
		/>
</g>
<g id="Layer_2">
</g>
</svg>
