<?xml version="1.0" encoding="utf-8"?>
<!-- Generator: Adobe Illustrator 21.1.0, SVG Export Plug-In . SVG Version: 6.00 Build 0)  -->
<svg version="1.1" id="Layer_1" xmlns="http://www.w3.org/2000/svg" xmlns:xlink="http://www.w3.org/1999/xlink" x="0px" y="0px"
	 viewBox="0 0 70.6 59.8" style="enable-background:new 0 0 70.6 59.8;" xml:space="preserve">
<g>
	<g>
		<g>
			<g>
				<path d="M45.7,8.1L45.4,8c-0.3-0.1-0.5-0.2-0.9-0.3c-0.4-0.1-0.6-0.2-0.9-0.3l-1.4-0.4l-0.3,1.5c-0.5,2.4-3.1,4.3-6.1,4.3
					c-3.1,0-5.8-2-6.2-4.5l-0.3-1.5l-1.5,0.4c-0.4,0.1-0.6,0.1-0.9,0.2c-0.6,0.2-1.3,0.4-1.9,0.5h-0.1c-0.2,0.1-0.5,0.2-0.7,0.3
					l2.1,2.1c0.3-0.1,0.5-0.2,0.9-0.2c1.1,3.2,4.5,5.4,8.4,5.4c3.8,0,7.2-2.2,8.4-5.2c0.2,0.1,0.5,0.1,0.6,0.2l15.8,6.3l-1.6,9
					l-9.7-2.1v9.4l2.7,2.7v-8.5l9.2,1.9l2.5-13.9L45.7,8.1z M49.2,50.2H21.4V23.8l-9.7,2.1l-1.7-9c2-0.8,4-1.6,5.9-2.4
					c1.8-0.7,3.6-1.5,5.4-2.2l-2.1-2.1c-1.5,0.6-3,1.2-4.4,1.7c-2.3,0.9-4.5,1.8-6.9,2.7l-1,0.5L9.6,29l9.1-1.9v25.8h33.2V43
					l-2.7-2.7V50.2z"/>
			</g>
		</g>
	</g>
</g>
<text transform="matrix(1 0 0 1 637.2456 384)" style="font-family:'MyriadPro-Regular'; font-size:12px;">live_help</text>
<text transform="matrix(1 0 0 1 637.2456 384)" style="font-family:'MyriadPro-Regular'; font-size:12px;">live_help</text>
<text transform="matrix(1 0 0 1 637.2456 384)" style="font-family:'MyriadPro-Regular'; font-size:12px;">live_help</text>
<rect x="32.8" y="-6.7" transform="matrix(0.7071 -0.7071 0.7071 0.7071 -10.8033 33.7188)" width="5" height="73.2"/>
</svg>
