<?xml version="1.0" encoding="utf-8"?>
<!-- Generator: Adobe Illustrator 21.1.0, SVG Export Plug-In . SVG Version: 6.00 Build 0)  -->
<!DOCTYPE svg PUBLIC "-//W3C//DTD SVG 1.1//EN" "http://www.w3.org/Graphics/SVG/1.1/DTD/svg11.dtd" [
	<!ENTITY st0 "fill:#FFFFFF;">
]>
<svg version="1.1" id="Layer_1" xmlns="http://www.w3.org/2000/svg" xmlns:xlink="http://www.w3.org/1999/xlink" x="0px" y="0px"
	 viewBox="0 0 80.5 64.7" style="enable-background:new 0 0 80.5 64.7;" xml:space="preserve">
<g>
	<g>
		<g>
			<polygon points="15.1,36.7 21.4,35.4 21.4,55.8 15.1,55.8 			"/>
			<path d="M70.2,9.2l-0.1,0.5l-9.9-3.9l-0.4-0.4L56,4.9l-0.4,0c-0.1,0-7,0.4-10.4,0.4c-3.4,0-10.1-0.4-10.2-0.4l-0.4,0l-3.9,0.5
				l-0.4,0.4L5.7,15.5l1.4,7.7l-4.4,0.9L0,9.2l22.3-8.9c0,0,0,0,0,0L24.5,0c0,0,6.9,0.4,10.4,0.4C38.5,0.4,45.6,0,45.6,0l2.2,0.3
				c0,0,0,0,0,0L70.2,9.2z"/>
		</g>
		<g>
			<g>
				<polygon style="&st0;" points="15.1,21.6 15.1,22 15,21.6 				"/>
			</g>
		</g>
	</g>
	<g>
		<path d="M10.3,18.1l2.8,15l12.3-2.6v34.2h40V30.5l12.3,2.6l2.8-15L58.1,9.2c-0.4,2.9-1.7,5.5-3.7,7.4c-2.3,2.3-5.5,3.7-9.1,3.7
			c-3.5,0-6.7-1.4-9.1-3.7c-2-2-3.3-4.5-3.7-7.4L10.3,18.1z M34.8,8.9c0.3,2.4,1.4,4.5,3,6.1c1.9,1.9,4.6,3.1,7.5,3.1
			c2.9,0,5.6-1.2,7.5-3.1c1.6-1.6,2.7-3.8,3-6.1c-3.5,0.5-7,0.8-10.5,0.8C41.9,9.7,38.3,9.5,34.8,8.9z M49.4,28.6h9.4
			c0.6,0,1.1,0.5,1.1,1.1c0,0.6-0.5,1.1-1.1,1.1h-9.4c-0.6,0-1.1-0.5-1.1-1.1C48.3,29.1,48.8,28.6,49.4,28.6z"/>
	</g>
</g>
</svg>
