<?xml version="1.0" encoding="utf-8"?>
<!-- Generator: Adobe Illustrator 21.1.0, SVG Export Plug-In . SVG Version: 6.00 Build 0)  -->
<svg version="1.1" id="Layer_1" xmlns="http://www.w3.org/2000/svg" xmlns:xlink="http://www.w3.org/1999/xlink" x="0px" y="0px"
	 viewBox="0 0 70.2 56.4" style="enable-background:new 0 0 70.2 56.4;" xml:space="preserve">
<path d="M49.9,56.1H14.8v-31L3.9,27.4L0.7,10.3l1.4-0.6c2.6-1,5.2-2.1,7.7-3.1c4.3-1.7,8.5-3.4,12.8-5.1l0.2-0.1
	C23.8,1.2,24.9,1,26,0.7l1.9-0.4l0.3,2c0.4,3,3.5,5.2,7.2,5.2c3.6,0,6.7-2.2,7.2-5.1L43,0.5l1.9,0.4c0.5,0.1,1,0.3,1.5,0.4
	c0.3,0.1,0.6,0.2,0.9,0.3l0.2,0.1l22.1,8.5l-2.9,15.3L63,24.8l2.3-12.3L46.2,5c-0.2,0-0.3-0.1-0.5-0.1c-1.6,3.7-5.6,6.2-10.2,6.2
	c-4.7,0-8.8-2.7-10.3-6.4c-0.4,0.1-0.8,0.2-1.2,0.4c-4.2,1.7-8.5,3.4-12.7,5.1c-2.1,0.8-4.2,1.7-6.3,2.5l2,10.5l11.7-2.5v31.9h31.5
	V56.1z"/>
<path d="M48.5,35.1h-7.9c-0.4,0-0.7,0.3-0.7,0.7v3.4c0,0.4,0.3,0.7,0.7,0.7h7.9c0.2,0,0.3,0.2,0.3,0.3v7.9c0,0.4,0.3,0.7,0.7,0.7H53
	c0.4,0,0.7-0.3,0.7-0.7v-7.9c0-0.2,0.2-0.3,0.3-0.3h7.9c0.4,0,0.7-0.3,0.7-0.7v-3.4c0-0.4-0.3-0.7-0.7-0.7H54
	c-0.2,0-0.3-0.2-0.3-0.3v-7.9c0-0.4-0.3-0.7-0.7-0.7h-3.4c-0.4,0-0.7,0.3-0.7,0.7v7.9C48.8,34.9,48.7,35.1,48.5,35.1z"/>
</svg>
