<?xml version="1.0" encoding="utf-8"?>
<!-- Generator: Adobe Illustrator 21.1.0, SVG Export Plug-In . SVG Version: 6.00 Build 0)  -->
<!DOCTYPE svg PUBLIC "-//W3C//DTD SVG 1.1//EN" "http://www.w3.org/Graphics/SVG/1.1/DTD/svg11.dtd">
<svg version="1.1" xmlns="http://www.w3.org/2000/svg" xmlns:xlink="http://www.w3.org/1999/xlink" x="0px" y="0px"
	 viewBox="0 0 70.2 56.4" style="enable-background:new 0 0 70.2 56.4;" xml:space="preserve">
<g id="Layer_1">
	<path d="M47.8,0.9c-0.8-0.2-1.6-0.5-2.5-0.7c-0.7,4.1-4.8,7.2-9.8,7.2c-5,0-9.2-3.2-9.8-7.4c-1.3,0.3-2.4,0.6-3.4,0.9
		C14.9,3.9,7.5,6.8,0,9.8l2.8,15l12.3-2.6v34.2h36.2c-10.5,0-19-8.5-19-19c0-10.5,8.5-19,19-19c5.3,0,10.1,2.2,13.6,5.7l2.6,0.5
		l2.8-15L47.8,0.9z M55.1,56c-1.3,0.3-2.5,0.4-3.9,0.4h3.9V56z"/>
	<path d="M45.2,42.3l-6.1-6.1l2-2c1.1-1.1,2-2,2-2s1.3,1.2,2.8,2.7l2.7,2.7V32v-5.8h2.8h2.8v5.7v5.7l2.6-2.6l2.6-2.6l2,2l2,2
		l-4.4,4.4c-2.4,2.4-5.2,5.2-6.1,6.1l-1.6,1.6L45.2,42.3L45.2,42.3z"/>
</g>
<g id="Layer_2">
</g>
</svg>
