<?xml version="1.0" encoding="utf-8"?>
<!-- Generator: Adobe Illustrator 21.1.0, SVG Export Plug-In . SVG Version: 6.00 Build 0)  -->
<svg version="1.1" id="Layer_1" xmlns="http://www.w3.org/2000/svg" xmlns:xlink="http://www.w3.org/1999/xlink" x="0px" y="0px"
	 viewBox="0 0 70.6 59.8" style="enable-background:new 0 0 70.6 59.8;" xml:space="preserve">
<g>
	<g>
		<g>
			<g>
				<path d="M46.6,55.3v1.5H15.9V27.7L5.3,29.9L3.4,20c0.7-0.3,1.4-0.6,2.2-0.9l-0.6-3c-1.3,0.5-2.6,1-3.9,1.5L0,18.1l2.9,15.3
					l10-2.1v28.4h36.7v-4.5H46.6z"/>
			</g>
		</g>
	</g>
</g>
<g>
	<g>
		<g>
			<g>
				<path d="M57.7,50.9H21V22.4l-10,2.1L8,9.2l1.1-0.5c2.6-1,5.1-2,7.6-3c3.7-1.4,7.5-2.9,11.2-4.5l0.1,0c0.7-0.2,1.4-0.4,2.1-0.6
					c0.3-0.1,0.6-0.1,1-0.2L32.7,0L33,1.7c0.4,2.8,3.4,5,6.8,5c3.4,0,6.3-2.1,6.8-4.8l0.3-1.6l1.6,0.4c0.3,0.1,0.6,0.2,1,0.3
					c0.4,0.1,0.7,0.2,1,0.3l0.3,0.1l19.9,8l-2.8,15.4l-10.2-2.1V50.9z M24,47.9h30.7V18.7L65.4,21l1.8-9.9l-17.5-7
					C49.5,4,49.2,4,49,3.9c-1.4,3.3-5.1,5.7-9.3,5.7c-4.3,0-8.1-2.5-9.3-6c-0.5,0.1-0.9,0.2-1.3,0.4c-3.7,1.5-7.5,3-11.2,4.5
					c-2.1,0.8-4.3,1.7-6.5,2.6l1.9,9.9L24,18.7V47.9z"/>
			</g>
		</g>
	</g>
</g>
</svg>
