<?xml version="1.0" encoding="utf-8"?>
<!-- Generator: Adobe Illustrator 21.1.0, SVG Export Plug-In . SVG Version: 6.00 Build 0)  -->
<!DOCTYPE svg PUBLIC "-//W3C//DTD SVG 1.1//EN" "http://www.w3.org/Graphics/SVG/1.1/DTD/svg11.dtd">
<svg version="1.1" id="Layer_1" xmlns="http://www.w3.org/2000/svg" xmlns:xlink="http://www.w3.org/1999/xlink" x="0px" y="0px"
	 viewBox="0 0 82.4 65.5" style="enable-background:new 0 0 82.4 65.5;" xml:space="preserve">
<g>
	<path d="M0,10.7l3.3,17.6l14.4-3v40.2h47V25.3l14.4,3l3.3-17.6L56.1,0.3c-0.4,3.4-2,6.4-4.3,8.7c-2.7,2.7-6.5,4.4-10.6,4.4
		c-4.1,0-7.9-1.7-10.6-4.4c-2.3-2.3-3.9-5.3-4.3-8.7C26.3,0.3,0,10.7,0,10.7z M28.8,0c0.4,2.8,1.6,5.3,3.6,7.2
		c2.3,2.2,5.4,3.6,8.8,3.6c3.4,0,6.6-1.4,8.8-3.6c1.9-1.9,3.2-4.4,3.6-7.2c-4.1,0.6-8.2,1-12.4,1C37.1,1,32.9,0.6,28.8,0z M45.9,23
		h11c0.7,0,1.3,0.6,1.3,1.3c0,0.7-0.6,1.3-1.3,1.3h-11c-0.7,0-1.3-0.6-1.3-1.3C44.6,23.6,45.1,23,45.9,23z"/>
</g>
</svg>
