<?xml version="1.0" encoding="utf-8"?>
<!-- Generator: Adobe Illustrator 21.1.0, SVG Export Plug-In . SVG Version: 6.00 Build 0)  -->
<svg version="1.1" id="Layer_1" xmlns="http://www.w3.org/2000/svg" xmlns:xlink="http://www.w3.org/1999/xlink" x="0px" y="0px"
	 viewBox="0 0 70.6 59.8" style="enable-background:new 0 0 70.6 59.8;" xml:space="preserve">
<text transform="matrix(1 0 0 1 637.2456 384)" style="font-family:'MyriadPro-Regular'; font-size:12px;">live_help</text>
<text transform="matrix(1 0 0 1 637.2456 384)" style="font-family:'MyriadPro-Regular'; font-size:12px;">live_help</text>
<text transform="matrix(1 0 0 1 637.2456 384)" style="font-family:'MyriadPro-Regular'; font-size:12px;">live_help</text>
<g>
	<g>
		<g>
			<g>
				<g>
					<path d="M48.2,2.8l-0.3-0.1c-0.3-0.1-0.7-0.2-1.1-0.3c-0.5-0.1-0.8-0.2-1.1-0.3l-1.8-0.5l-0.3,1.8c-0.6,3-3.8,5.4-7.7,5.4
						c-3.8,0-7.2-2.5-7.7-5.6l-0.3-1.9L26,1.7c-0.5,0.1-0.8,0.1-1.1,0.2c-0.8,0.2-1.6,0.4-2.4,0.7h-0.1c-0.8,0.3-1.6,0.7-2.4,1
						l2.6,2.6c0.4-0.2,0.8-0.3,1.2-0.5c0.5-0.2,0.9-0.3,1.5-0.4c1.4,3.9,5.6,6.8,10.5,6.8c4.7,0,8.9-2.7,10.5-6.4
						c0.2,0.1,0.6,0.1,0.8,0.2l19.7,7.9l-2,11.1l-12-2.6v13.9l3.4,3.4V26.8l11.5,2.4l3.2-17.3L48.2,2.8z M52.6,55.2H18V22.3L6,24.9
						L3.8,13.7c2.5-1,5-2,7.3-2.9c2.1-0.8,4.1-1.7,6.2-2.5l-2.6-2.6c-1.7,0.7-3.3,1.3-5,1.9C7,8.8,4.2,9.9,1.2,11L0,11.6l3.4,17.2
						l11.3-2.4v32.1H56V46.9l-3.4-3.4V55.2z"/>
				</g>
			</g>
		</g>
	</g>
	<rect x="32.7" y="-8" transform="matrix(0.7071 -0.7071 0.7071 0.7071 -10.8033 33.7188)" width="5.2" height="75.9"/>
</g>
</svg>
