<?xml version="1.0" encoding="utf-8"?>
<!-- Generator: Adobe Illustrator 21.1.0, SVG Export Plug-In . SVG Version: 6.00 Build 0)  -->
<svg version="1.1" id="Layer_1" xmlns="http://www.w3.org/2000/svg" xmlns:xlink="http://www.w3.org/1999/xlink" x="0px" y="0px"
	 viewBox="0 0 70.2 56.4" style="enable-background:new 0 0 70.2 56.4;" xml:space="preserve">
<g id="Layer_1_1_">
	<path d="M47.8,0.9c-0.8-0.2-1.6-0.5-2.5-0.7c-0.7,4.1-4.8,7.2-9.8,7.2S26.3,4.2,25.7,0c-1.3,0.3-2.4,0.6-3.4,0.9
		C14.9,3.9,7.5,6.8,0,9.8l2.8,15l12.3-2.6v34.2h36.2c-10.5,0-19-8.5-19-19s8.5-19,19-19c5.3,0,10.1,2.2,13.6,5.7l2.6,0.5l2.8-15
		L47.8,0.9z M55.1,56c-1.3,0.3-2.5,0.4-3.9,0.4h3.9V56z"/>
	<g>
		<g>
			<rect x="35.8" y="35.8" width="13" height="3.9"/>
			<polygon points="60.1,51.9 60.1,40.5 56.2,40.5 56.2,45.2 47,36 44.3,38.8 53.4,48 48.8,48 48.8,50.2 48.8,51.9 			"/>
			<polygon points="47,39.4 56.2,30.3 56.2,34.9 60.1,34.9 60.1,23.6 60.1,23.6 48.8,23.6 48.8,25.3 48.8,27.5 53.4,27.5 44.3,36.7 
							"/>
		</g>
	</g>
</g>
<g id="Layer_2">
</g>
</svg>
