<?xml version="1.0" encoding="utf-8"?>
<!-- Generator: Adobe Illustrator 21.1.0, SVG Export Plug-In . SVG Version: 6.00 Build 0)  -->
<!DOCTYPE svg PUBLIC "-//W3C//DTD SVG 1.1//EN" "http://www.w3.org/Graphics/SVG/1.1/DTD/svg11.dtd">
<svg version="1.1" id="Layer_1" xmlns="http://www.w3.org/2000/svg" xmlns:xlink="http://www.w3.org/1999/xlink" x="0px" y="0px"
	 viewBox="0 0 70.2 56.4" style="enable-background:new 0 0 70.2 56.4;" xml:space="preserve">
<path d="M47.8,0.9c-0.8-0.2-1.6-0.5-2.5-0.7c-0.7,4.1-4.8,7.2-9.8,7.2c-5,0-9.2-3.2-9.8-7.4c-1.3,0.3-2.4,0.6-3.4,0.9
	C14.9,3.9,7.5,6.8,0,9.8l2.8,15l12.3-2.6v34.2h36.2c-10.5,0-19-8.5-19-19c0-10.5,8.5-19,19-19c5.3,0,10.1,2.2,13.6,5.7l2.6,0.5
	l2.8-15L47.8,0.9z M55.1,56c-1.3,0.3-2.5,0.4-3.9,0.4h3.9V56z"/>
<path d="M48.5,35.1h-7.9c-0.4,0-0.7,0.3-0.7,0.7v3.4c0,0.4,0.3,0.7,0.7,0.7h7.9c0.2,0,0.3,0.2,0.3,0.3v7.9c0,0.4,0.3,0.7,0.7,0.7H53
	c0.4,0,0.7-0.3,0.7-0.7v-7.9c0-0.2,0.2-0.3,0.3-0.3h7.9c0.4,0,0.7-0.3,0.7-0.7v-3.4c0-0.4-0.3-0.7-0.7-0.7H54
	c-0.2,0-0.3-0.2-0.3-0.3v-7.9c0-0.4-0.3-0.7-0.7-0.7h-3.4c-0.4,0-0.7,0.3-0.7,0.7v7.9C48.8,34.9,48.7,35.1,48.5,35.1z"/>
</svg>
