<?xml version="1.0" encoding="utf-8"?>
<!-- Generator: Adobe Illustrator 21.1.0, SVG Export Plug-In . SVG Version: 6.00 Build 0)  -->
<!DOCTYPE svg PUBLIC "-//W3C//DTD SVG 1.1//EN" "http://www.w3.org/Graphics/SVG/1.1/DTD/svg11.dtd" [
	<!ENTITY st0 "fill:#FFFFFF;">
]>
<svg version="1.1" id="Layer_1" xmlns="http://www.w3.org/2000/svg" xmlns:xlink="http://www.w3.org/1999/xlink" x="0px" y="0px"
	 viewBox="0 0 70.6 59.8" style="enable-background:new 0 0 70.6 59.8;" xml:space="preserve">
<g>
	<g>
		<g>
			<path d="M48.9,54v5.8H13.4V29.5L2.5,31.8L0,18.5c1.9-0.8,3.8-1.5,5.7-2.3l1.2,6.5l0.8,4l4-0.9l6.1-1.3V54H48.9z"/>
		</g>
	</g>
	<g>
		<g>
			<g>
				<path d="M70.6,8.7L68.2,22l-6.3-1.3l-4.7-1V50H21.7V19.7L10.8,22l-1.4-7.3l-1.1-6C15,6,21.6,3.5,28.1,0.8C29,0.5,30,0.3,31.2,0
					c0.5,3.7,4.3,6.6,8.7,6.6c4.4,0,8.1-2.8,8.7-6.4c0.8,0.2,1.5,0.5,2.2,0.6L70.6,8.7z"/>
				<path style="&st0;" d="M57.2,19.7v11.5l2.6,0.5l2.1-11.1L57.2,19.7z"/>
			</g>
		</g>
	</g>
</g>
</svg>
