<?xml version="1.0" encoding="utf-8"?>
<!-- Generator: Adobe Illustrator 21.1.0, SVG Export Plug-In . SVG Version: 6.00 Build 0)  -->
<svg version="1.1" id="Layer_1" xmlns="http://www.w3.org/2000/svg" xmlns:xlink="http://www.w3.org/1999/xlink" x="0px" y="0px"
	 viewBox="0 0 100 100" style="enable-background:new 0 0 100 100;" xml:space="preserve">
<g>
	<path d="M34.3,85.9H21.7c-3.6,0-6.6-2.9-6.7-6.5l-0.1-5.7c-0.4,1.8-0.7,3.5-1,4.9c-0.7,3.3-3.6,5.6-6.9,5.6c-0.4,0-0.9,0-1.5-0.2
		c-1.8-0.4-3.3-1.4-4.3-2.9c-1-1.5-1.4-3.4-1.1-5.2c0.2-1.2,2.6-13.3,4.5-18.1c0.1-0.2,0.1-0.4,0.2-0.6C5,56.9,5.1,56.5,5.4,56
		l0.1-0.2c2-5.4,5.8-15.4,15.8-15.4l30.8,0c1,0,2,0.7,2.1,1.7c0.2,1.2-0.8,2.3-2,2.3h-31c-7.2,0-10.2,8-12,12.8l-0.1,0.3
		c-0.2,0.5-0.3,0.9-0.5,1.2c-0.1,0.2-0.2,0.4-0.2,0.6c-1.7,4.3-4.1,16.1-4.3,17.3c-0.2,0.9,0,1.7,0.4,2.3c0.4,0.6,1.1,1.1,1.9,1.2
		l0.3,0.1c0,0,0.2,0,0.4,0c1.4,0,2.7-1,2.9-2.4c0.9-4.8,2.8-13.1,4-16.1c0.1-0.4,0.3-0.8,0.5-1.2c0.1-0.3,0.2-0.6,0.3-0.9l0,0
		c0.8-2.1,3.8-1.5,3.9,0.7l0.4,19c0.1,1.5,1.2,2.6,2.7,2.6h12.6c1.5,0,2.6-1.2,2.7-2.7l0.5-28.9c0,0,0-0.1,0.1-0.1h8.1
		c1,0,2,0.7,2.1,1.7c0.2,1.2-0.8,2.3-2,2.3h-4.3c0,0-0.1,0-0.1,0.1l-0.5,25C40.8,83,37.9,85.9,34.3,85.9z"/>
	<path d="M27.9,39.4c-7.5,0-13.6-6.1-13.6-13.6s6.1-13.6,13.6-13.6s13.6,6.1,13.6,13.6S35.4,39.4,27.9,39.4z M27.9,16.2
		c-5.3,0-9.6,4.3-9.6,9.6s4.3,9.6,9.6,9.6s9.6-4.3,9.6-9.6S33.2,16.2,27.9,16.2z"/>
</g>
<g>
	<path d="M78.4,85.9H65.8c-3.6,0-6.6-2.9-6.7-6.5L59,73.7c-0.4,1.8-0.7,3.5-1,4.9c-0.7,3.7-4.3,6.2-8.1,5.5
		c-1.8-0.3-3.4-1.4-4.5-2.9c-1-1.5-1.4-3.4-1.1-5.2l0.2-0.8c0.7-3.2,2.7-13.1,4.5-17.3c0.1-0.1,0.1-0.3,0.2-0.5
		c0.1-0.4,0.3-0.8,0.5-1.3l0,0c2-5.4,5.8-15.6,15.8-15.6h13.2c10.2,0,14.2,10.9,15.9,15.7c0.2,0.4,0.3,0.9,0.5,1.2
		c0.1,0.2,0.1,0.4,0.2,0.6c1.5,3.5,3.1,10.8,4.3,16.8c0.1,0.6,0.2,1,0.3,1.2l0,0.1c0.7,3.8-1.7,7.4-5.3,8.1
		c-0.6,0.1-1.1,0.1-1.4,0.1c-3.4,0-6.2-2.3-6.9-5.6c-0.3-1.4-0.6-3.1-1-4.9l-0.1,5.7C85,83,82,85.9,78.4,85.9z M58.8,59.6
		c0.8-2.1,3.8-1.5,3.9,0.7l0.4,19c0.1,1.5,1.2,2.6,2.7,2.6h12.6c1.5,0,2.6-1.2,2.7-2.7l0.4-19c0-2.2,3.1-2.7,3.9-0.7l0,0
		c0.1,0.3,0.2,0.5,0.3,0.8c0.2,0.4,0.3,0.8,0.4,1.1l0.1,0.1c1.2,2.9,3.1,11.4,4,16.2c0.3,1.4,1.5,2.4,2.9,2.4c0.3,0,0.4,0,0.5,0
		l0.1,0c1.5-0.3,2.5-1.8,2.2-3.4c-0.1-0.2-0.1-0.7-0.3-1.3C95,72,93.1,63,91.6,59.4c-0.1-0.2-0.2-0.5-0.3-0.7
		c-0.1-0.3-0.3-0.7-0.4-1.1l0-0.1c-2.4-6.8-5.6-13.1-12.1-13.1H65.5c-7.2,0-10.3,8.1-12.1,13l0,0.1c-0.2,0.5-0.3,0.9-0.5,1.2
		c-0.1,0.2-0.2,0.4-0.2,0.6c-1.1,2.6-2.5,8.2-4.2,16.6l-0.2,0.8c-0.1,0.7,0,1.5,0.5,2.2c0.4,0.6,1.1,1.1,1.9,1.2
		c0.8,0.1,1.6,0,2.3-0.4c0.6-0.4,1.1-1.1,1.2-1.8c0.9-4.8,2.8-13.2,4-16.1c0.1-0.4,0.3-0.8,0.5-1.2C58.6,60.2,58.7,59.9,58.8,59.6
		L58.8,59.6z"/>
	<path d="M72.1,39.4c-7.5,0-13.6-6.1-13.6-13.6s6.1-13.6,13.6-13.6s13.6,6.1,13.6,13.6S79.6,39.4,72.1,39.4z M72.1,16.2
		c-5.3,0-9.6,4.3-9.6,9.6s4.3,9.6,9.6,9.6c5.3,0,9.6-4.3,9.6-9.6S77.4,16.2,72.1,16.2z"/>
</g>
</svg>
