<?xml version="1.0" encoding="utf-8"?>
<!-- Generator: Adobe Illustrator 21.1.0, SVG Export Plug-In . SVG Version: 6.00 Build 0)  -->
<!DOCTYPE svg PUBLIC "-//W3C//DTD SVG 1.1//EN" "http://www.w3.org/Graphics/SVG/1.1/DTD/svg11.dtd" [
	<!ENTITY st0 "fill:#6CBE45;fill-opacity:0.94;">
]>
<svg version="1.1" id="Layer_2" xmlns="http://www.w3.org/2000/svg" xmlns:xlink="http://www.w3.org/1999/xlink" x="0px" y="0px"
	 viewBox="0 0 192 192" style="enable-background:new 0 0 192 192;" xml:space="preserve">
<path style="&st0;" d="M174.2,96c0,43.2-35,78.2-78.2,78.2v9.8c48.6,0,87.9-39.4,87.9-87.9H174.2z M96.1,174.2
	c-43.2,0-78.2-35-78.2-78.2H8.1c0,48.6,39.4,87.9,87.9,87.9V174.2z M17.9,96c0-43.2,35-78.2,78.2-78.2V8.1C47.5,8.1,8.1,47.5,8.1,96
	H17.9z M96.1,17.9c43.2,0,78.2,35,78.2,78.2h9.8c0-48.6-39.4-87.9-87.9-87.9V17.9z"/>
</svg>
