<?xml version="1.0" encoding="utf-8"?>
<!-- Generator: Adobe Illustrator 21.1.0, SVG Export Plug-In . SVG Version: 6.00 Build 0)  -->
<svg version="1.1" id="Layer_2" xmlns="http://www.w3.org/2000/svg" xmlns:xlink="http://www.w3.org/1999/xlink" x="0px" y="0px"
	 viewBox="0 0 192 192" style="enable-background:new 0 0 192 192;" xml:space="preserve">
<style type="text/css">
	.st0{fill:currentColor;}
</style>
<path class="st0" d="M139.8,92.3c12.2,0,21.9-9.8,21.9-22s-9.7-22-21.9-22c-2.3,0-4.6,0.4-6.7,1c4.2,5.9,6.6,13.1,6.6,20.9
	s-2.5,14.9-6.6,20.9C135.2,92,137.4,92.3,139.8,92.3z M103.2,92.3c12.2,0,21.9-9.8,21.9-22s-9.7-22-21.9-22s-22,9.8-22,22
	S91,92.3,103.2,92.3z M151.6,108.2c6.1,5.3,10.1,12.2,10.1,20.8v14.6h22v-14.6C183.7,117.7,166.3,110.7,151.6,108.2z M103.2,107
	c-14.6,0-43.9,7.3-43.9,22v14.6h87.8v-14.6C147.1,114.3,117.8,107,103.2,107z M34.7,109.8l7.1,7.1l24.8-24.8L41.8,67.4l-7.1,7.1
	l12.7,12.7H7.9v10h39.5L34.7,109.8z"/>
</svg>
