<?xml version="1.0" encoding="utf-8"?>
<!-- Generator: Adobe Illustrator 21.1.0, SVG Export Plug-In . SVG Version: 6.00 Build 0)  -->
<svg version="1.1" xmlns="http://www.w3.org/2000/svg" xmlns:xlink="http://www.w3.org/1999/xlink" x="0px" y="0px"
	 viewBox="0 0 192 192" style="enable-background:new 0 0 192 192;" xml:space="preserve">
<style type="text/css">
	.st0{fill:none;}
</style>
<g id="Layer_10">
	<path d="M154.8,80.3c-0.5-2.5-1.1-4.9-1.9-7.3l-13.2,13.2l1.8,9.2l12.2,0.9c12.5,0.8,22.2,11.3,22.2,23.7c0,13.2-10.8,24-24,24H48
		c-17.7,0-32-14.3-32-32c0-16.4,12.2-30.1,28.5-31.8l8.6-0.9l4-7.6C64.6,57.1,79.5,48,96,48c4.3,0,8.4,0.6,12.3,1.8l12.4-12.4
		C113.2,33.9,104.8,32,96,32c-23.1,0-43.2,13.1-53.2,32.3C18.7,66.9,0,87.3,0,112c0,26.5,21.5,48,48,48h104c22.1,0,40-17.9,40-40
		C192,98.9,175.6,81.8,154.8,80.3z"/>
	<g>
		<g>
			<polygon points="147.2,56.1 145.4,58 133.8,69.5 79.3,124 68,124 68,112.7 123.2,57.5 134.6,46.1 135.9,44.8 			"/>
		</g>
		<path d="M155.7,30.7l5.7,5.7c1.6,1.6,1.6,4.1,0,5.7l-8.5,8.5l-11.3-11.3l8.5-8.5C151.6,29.1,154.1,29.1,155.7,30.7z"/>
	</g>
</g>
<g id="Layer_11">
	<path class="st0" d="M0.2,0.2H192V192H0.2V0.2z"/>
</g>
</svg>
