<svg viewBox="0 0 24 24" version="1.1" id="Layer_2" 
    xmlns="http://www.w3.org/2000/svg" 
    x="0px" y="0px" style="enable-background:new 0 0 24 24;" xml:space="preserve">
    <g>
        <path d="M12 15V12.4929L18.8422 5.66812L21.3319 8.15778L14.5071 15H12Z" fill="currentColor"/>
        <path d="M21.2971 3.19587C21.5582 2.93471 21.9761 2.93471 22.2372 3.19587L23.8041 4.76278C24.0653 5.02394 24.0653 5.44178 23.8041 5.70294L22.5854 6.92165L20.0783 4.41458L21.2971 3.19587Z" fill="curretnColor"/>
        <path fill-rule="evenodd" clip-rule="evenodd" d="M14.8504 6.79415C14.0132 6.28808 13.0372 6 12.01 6C9.95001 6 8.08001 7.14 7.14001 8.97L6.64001 9.92L5.57001 10.03C3.54001 10.24 2.01001 11.95 2.01001 14C2.01001 16.21 3.80001 18 6.01001 18H19.01C20.66 18 22.01 16.65 22.01 15C22.01 13.9178 21.4152 12.9574 20.5252 12.4389L21.9152 10.9484C23.1827 11.8476 24.01 13.3229 24.01 15C24.01 17.76 21.77 20 19.01 20H6.01001C2.70001 20 0.0100098 17.31 0.0100098 14C0.0100098 10.91 2.35001 8.36 5.35001 8.04C6.60001 5.64 9.12001 4 12.01 4C13.5792 4 15.035 4.48131 16.2388 5.30535L14.8504 6.79415Z" fill="curretnColor"/>
    </g>
    <defs>
    </defs>
</svg>
